<svg width="50" height="50" viewBox="0 0 50 50" fill="none" xmlns="http://www.w3.org/2000/svg">
<path d="M50 0H0V50H50V0Z" fill="#28AFF0"/>
<path d="M20.567 33.3188C19.5142 33.3188 18.485 33.0066 17.6096 32.4217C16.7343 31.8368 16.052 31.0054 15.6491 30.0327C15.2462 29.0601 15.1408 27.9898 15.3462 26.9572C15.5516 25.9246 16.0585 24.9762 16.803 24.2317C17.5474 23.4873 18.4959 22.9803 19.5285 22.7749C20.5611 22.5695 21.6314 22.6749 22.604 23.0778C23.5767 23.4807 24.408 24.163 24.9929 25.0383C25.5779 25.9137 25.89 26.9429 25.89 27.9957C25.8883 29.4069 25.3269 30.7598 24.329 31.7577C23.3311 32.7556 21.9782 33.317 20.567 33.3188ZM20.567 24.5869C19.8904 24.5869 19.229 24.7877 18.6665 25.1638C18.1041 25.5399 17.6659 26.0745 17.4074 26.6998C17.1489 27.3251 17.0818 28.013 17.2146 28.6765C17.3473 29.3399 17.6739 29.9491 18.1531 30.4268C18.6322 30.9046 19.2423 31.2294 19.9062 31.3602C20.57 31.4909 21.2578 31.4218 21.8823 31.1615C22.5068 30.9012 23.0401 30.4614 23.4146 29.8978C23.789 29.3343 23.9878 28.6723 23.9858 27.9957C23.9849 27.0895 23.6243 26.2208 22.9833 25.5804C22.3422 24.9399 21.4731 24.5802 20.567 24.5802V24.5869Z" fill="white"/>
<path d="M26.115 37.6142H15.0323L9.47412 27.9957L15.0222 18.3906H26.105L31.6531 27.9957L26.115 37.6142ZM16.1204 35.6999H25.0168L29.4634 27.9957L25.0168 20.2948H16.1204L11.6739 27.9957L16.1204 35.6999Z" fill="white"/>
<path d="M32.5934 22.8606C31.9086 22.8606 31.2391 22.6575 30.6697 22.277C30.1003 21.8966 29.6565 21.3558 29.3944 20.7231C29.1324 20.0904 29.0638 19.3942 29.1974 18.7226C29.331 18.0509 29.6608 17.4339 30.145 16.9497C30.6293 16.4655 31.2462 16.1357 31.9179 16.0021C32.5895 15.8685 33.2857 15.937 33.9184 16.1991C34.5511 16.4612 35.0919 16.905 35.4724 17.4744C35.8528 18.0438 36.0559 18.7132 36.0559 19.3981C36.055 20.3161 35.6899 21.1963 35.0408 21.8455C34.3916 22.4946 33.5114 22.8597 32.5934 22.8606ZM32.5934 17.8398C32.2852 17.8398 31.9839 17.9312 31.7276 18.1024C31.4714 18.2736 31.2716 18.517 31.1537 18.8017C31.0358 19.0865 31.0049 19.3998 31.065 19.7021C31.1252 20.0044 31.2736 20.282 31.4915 20.5C31.7094 20.7179 31.9871 20.8663 32.2894 20.9264C32.5917 20.9866 32.905 20.9557 33.1897 20.8378C33.4745 20.7198 33.7178 20.5201 33.8891 20.2638C34.0603 20.0076 34.1517 19.7063 34.1517 19.3981C34.1508 18.9851 33.9863 18.5892 33.6943 18.2972C33.4022 18.0051 33.0064 17.8407 32.5934 17.8398Z" fill="white"/>
<path d="M36.5159 26.2864H29.0468V24.3822H35.4143L38.3261 19.3412L35.4143 14.3002H29.5942L26.4105 19.8181L24.7615 18.8643L28.496 12.396H36.5159L40.5258 19.3412L36.5159 26.2864Z" fill="white"/>
</svg>
