<svg width="50" height="50" viewBox="0 0 50 50" fill="none" xmlns="http://www.w3.org/2000/svg">
<path d="M50 0H0V50H50V0Z" fill="#28AFF0"/>
<path d="M40.2777 14.6111H23.6666V22.8889C23.3333 22.2778 22.9444 21.6111 22.3333 21.0555C20.6111 19.4444 16.1111 19.9444 15.0555 20.0555H9.72217V29.8333L15.1666 29.7222H16.4444L21.3333 35.3889H32.9444L33 34.4444C33 34.0555 33.0555 32.1666 32.5555 31.1666H40.3333V14.6111H40.2777ZM22.1666 33.5L17.2777 27.8333H15.1111L11.6111 27.8889V21.9444H15.1111H15.2222C17.1111 21.7222 20.1666 21.6666 21.0555 22.4444C22.3333 23.6111 22.5555 25.7222 22.5555 25.7778L22.6111 26.1111L22.8333 26.3333C23.9999 27.5 25.6666 29.6111 25.6111 30.6666C25.6111 30.8333 25.5555 30.8889 25.4444 31C24.8333 31.1111 22.7222 29.1666 20.8333 26.4444L19.2777 27.5C19.8333 28.3333 22.7777 32.4444 24.9999 32.8333C25.5555 32.9444 26.0555 32.8333 26.4999 32.5C26.8333 32.2778 27.1111 31.9444 27.2777 31.6111C28.8888 31.4444 30.5555 31.6666 30.7777 32C30.8888 32.2222 30.9999 32.8333 30.9999 33.4444H22.1666V33.5ZM38.3888 29.3333H27.2222C26.8333 28.3889 26.2222 27.3889 25.5555 26.6111V16.5H30.9999V18.8333H32.8888V16.5H38.3333V29.3333H38.3888Z" fill="white"/>
</svg>
