<svg width="133" height="28" viewBox="0 0 133 28" fill="none" xmlns="http://www.w3.org/2000/svg">
<path d="M0 27.2H27.2V0H0V27.2ZM6 6H21.2V21.1H6V6Z" fill="#1400DC"/>
<path d="M37.7 19.8H36.3V21.2H37.7V19.8Z" fill="#1400DC"/>
<path d="M42.5 24.3L40.7 23.8C40.6 23.8 40.4 23.7 40.3 23.6C40.2 23.5 40.2 23.4 40.2 23.3C40.2 23.1 40.3 23 40.4 22.9C40.6 22.8 40.8 22.8 41 22.8C41.7 22.8 42 23.1 42 23.5H43.3C43.3 23 43.1 22.5 42.7 22.2C42.2 21.9 41.6 21.7 41 21.7C40.4 21.7 39.9 21.8 39.4 22.2C39 22.5 38.8 23 38.8 23.5C38.8 23.8 38.9 24.1 39 24.3C39.3 24.6 39.6 24.7 39.9 24.8L41.6 25.3C41.9 25.4 42.1 25.5 42.1 25.7C42.1 26 41.8 26.2 41.1 26.2C40.8 26.2 40.6 26.2 40.3 26.1C40.1 26 40 25.8 40 25.6H38.6C38.6 26.8 39.5 27.4 41.1 27.4C41.7 27.4 42.3 27.3 42.8 27C43.2 26.7 43.4 26.2 43.4 25.7C43.6 25 43.1 24.4 42.5 24.3Z" fill="#1400DC"/>
<path d="M51.7 8.19999C51.7 6.49999 52.5 5.69999 54.2 5.69999C54.5 5.69999 54.8 5.69999 55.1 5.79999V2.89999C55 2.89999 54.9 2.89999 54.8 2.89999C53.5 2.89999 52.4 3.69999 51.8 5.19999V2.99999H49V14H51.8V8.19999H51.7Z" fill="#1400DC"/>
<path d="M46.9 21.8C46.2 21.8 45.5 22 45 22.5C44.1 23.7 44.1 25.4 45 26.6C46.1 27.6 47.8 27.6 48.9 26.6C49.4 26.1 49.7 25.3 49.6 24.6C49.6 23.8 49.4 23.1 48.9 22.5C48.4 22 47.6 21.7 46.9 21.8ZM48.2 24.6C48.2 25 48.1 25.4 47.9 25.8C47.8 25.9 47.8 25.9 47.7 26C47.2 26.4 46.5 26.3 46.1 25.8C45.6 25.1 45.6 24.1 46.1 23.4C46.2 23.3 46.2 23.3 46.3 23.2C46.8 22.8 47.5 22.9 48 23.4C48.1 23.7 48.2 24.1 48.2 24.6Z" fill="#1400DC"/>
<path d="M37.7 21.9H36.3V27.3H37.7V21.9Z" fill="#1400DC"/>
<path d="M39.1 12.5C39.8 13.7 40.7 14.1 42.1 14.1C44.7 14.1 46.7 11.8 46.7 8.4C46.7 5.2 45 2.7 42.1 2.7C40.8 2.7 39.6 3.4 39.1 4.5V3H36.3V18.4H39.1V12.5ZM41.5 5.2C43 5.2 43.9 6.4 43.9 8.5C43.9 10.5 42.9 11.8 41.5 11.8C40.1 11.8 39.1 10.6 39.1 8.5C39.1 6.5 40.1 5.2 41.5 5.2Z" fill="#1400DC"/>
<path d="M18.1 9.10001H9V18.2H18.1V9.10001Z" fill="#1400DC"/>
<path d="M98.9 7.99999L95.3 6.99999C94.5 6.79999 94.3 6.59999 94.3 6.09999C94.3 5.49999 94.9 5.09999 95.9 5.09999C97.3 5.09999 98 5.59999 98 6.59999H100.7C100.7 4.29999 98.9 2.89999 95.9 2.89999C93.1 2.89999 91.4 4.29999 91.4 6.59999C91.4 7.89999 91.8 8.69999 93.8 9.29999L97.2 10.4C97.9 10.6 98.1 10.8 98.1 11.2C98.1 11.9 97.3 12.1 96 12.1C94.7 12.1 94 11.9 93.8 10.7H91C91.1 13.1 92.8 14.4 96.2 14.4C99.3 14.4 101 13.2 101 11V10.9C101.1 9.39999 100.4 8.39999 98.9 7.99999Z" fill="#1400DC"/>
<path d="M110.2 7.99999L106.6 6.99999C105.8 6.79999 105.6 6.59999 105.6 6.09999C105.6 5.49999 106.2 5.09999 107.2 5.09999C108.6 5.09999 109.2 5.59999 109.2 6.59999H111.9C111.9 4.29999 110.1 2.89999 107.1 2.89999C104.3 2.89999 102.6 4.29999 102.6 6.59999C102.6 7.89999 103 8.69999 105 9.29999L108.4 10.4C109.1 10.6 109.3 10.8 109.3 11.2C109.3 11.9 108.5 12.1 107.2 12.1C105.9 12.1 105.2 11.9 105 10.7H102.2C102.3 13.1 104 14.4 107.4 14.4C110.5 14.4 112.2 13.2 112.2 11V10.9C112.4 9.39999 111.6 8.39999 110.2 7.99999Z" fill="#1400DC"/>
<path d="M84.7 2.8C81.5 2.8 79.6 4.9 79.6 8.6C79.6 12.1 81.5 14.1 84.6 14.1C87.1 14.1 89.1 13 89.7 10.8H86.9C86.7 11.6 85.8 11.9 84.7 11.9C83.4 11.9 82.5 11.3 82.4 9.2H89.8V8.8C89.8 5.1 87.9 2.8 84.7 2.8ZM82.5 7.4C82.7 5.8 83.4 5 84.6 5C85.8 5 86.7 5.8 86.8 7.4H82.5Z" fill="#1400DC"/>
<path d="M119.2 2.8C115.8 2.8 113.8 4.9 113.8 8.5C113.8 12.1 115.8 14.2 119.2 14.2C122.5 14.2 124.6 12.1 124.6 8.6C124.6 4.9 122.6 2.8 119.2 2.8ZM119.2 11.9C117.7 11.9 116.6 10.6 116.6 8.5C116.6 6.4 117.6 5.1 119.2 5.1C120.8 5.1 121.8 6.4 121.8 8.5C121.8 10.6 120.7 11.9 119.2 11.9Z" fill="#1400DC"/>
<path d="M132.7 2.8C131.4 2.8 130.3 3.6 129.6 5.1V3H126.8V14H129.6V8.2C129.6 6.5 130.4 5.7 132.1 5.7C132.4 5.7 132.7 5.7 133 5.8V2.9C132.9 2.8 132.8 2.8 132.7 2.8Z" fill="#1400DC"/>
<path d="M70 22.5C69 21.5 67.4 21.5 66.4 22.5C65.9 23.1 65.7 23.8 65.7 24.6C65.7 25.3 65.9 26 66.4 26.6C66.9 27.1 67.5 27.3 68.2 27.3C68.8 27.3 69.3 27.2 69.8 26.9C70.2 26.6 70.6 26.2 70.7 25.7H69.3C69.2 26.1 68.8 26.2 68.2 26.2C67.9 26.2 67.6 26.1 67.4 25.9C67.2 25.6 67.1 25.2 67.1 24.9H70.7V24.7C70.7 24 70.5 23.2 70 22.5C70 22.6 70 22.5 70 22.5ZM67.1 24C67.2 23.2 67.5 22.8 68.1 22.8C68.4 22.8 68.6 22.9 68.8 23.1C69 23.3 69.1 23.6 69.1 24H67.1Z" fill="#1400DC"/>
<path d="M58.7 22.1C58.4 22.3 58.2 22.6 58.1 22.9V21.8H56.7V27.2H58.1V24.3C58.1 24.2 58.1 24.1 58.1 24C58.2 23.4 58.7 23 59.3 23.1C59.4 23.1 59.6 23.1 59.7 23.1V21.7H59.5C59.2 21.8 58.9 21.9 58.7 22.1Z" fill="#1400DC"/>
<path d="M63.4 26C63.2 26.1 63 26.2 62.8 26.2C62.5 26.2 62.2 26.1 62 25.8C61.8 25.4 61.7 25 61.7 24.6C61.7 23.5 62.1 22.9 62.8 22.9C63 22.9 63.3 23 63.4 23.1C63.6 23.3 63.7 23.6 63.7 23.8H65C65 23.2 64.7 22.7 64.3 22.3C63.8 21.9 63.3 21.7 62.7 21.7C62 21.7 61.3 21.9 60.8 22.4C60.3 23 60.1 23.7 60.1 24.5C60.1 25.2 60.3 26 60.8 26.5C61.3 27 62 27.3 62.7 27.2C63.3 27.2 63.9 27 64.3 26.7C64.7 26.3 65 25.8 65 25.3H63.7C63.7 25.6 63.6 25.8 63.4 26Z" fill="#1400DC"/>
<path d="M73.7 5.1C74.9 5.1 75.4 5.7 75.7 7.1H78.4C78.2 4.4 76.4 2.8 73.7 2.8C70.4 2.8 68.5 4.8 68.5 8.6C68.5 12.2 70.4 14.2 73.6 14.2C76.3 14.2 78.1 12.5 78.4 10.2H75.7C75.3 11.3 74.8 11.9 73.7 11.9C72.2 11.9 71.4 10.7 71.4 8.6C71.4 6.6 71.9 5.1 73.7 5.1Z" fill="#1400DC"/>
<path d="M54 25.1C54 25.4 53.9 25.7 53.7 25.9C53.5 26.1 53.2 26.2 52.9 26.2C52.3 26.2 52 25.9 52 25.2V21.9H50.6V25.5C50.6 26 50.7 26.5 51.1 26.9C51.5 27.2 51.9 27.4 52.4 27.4C53 27.4 53.6 27.1 54 26.6V27.3H55.4V21.9H54V25.1Z" fill="#1400DC"/>
<path d="M61.6 2.8C58.2 2.8 56.2 4.9 56.2 8.5C56.2 12.1 58.3 14.2 61.6 14.2C64.9 14.2 67 12.1 67 8.6C67 4.9 65 2.8 61.6 2.8ZM61.6 11.9C60.1 11.9 59 10.6 59 8.5C59 6.4 60 5.1 61.6 5.1C63.2 5.1 64.2 6.4 64.2 8.5C64.2 10.6 63.1 11.9 61.6 11.9Z" fill="#1400DC"/>
</svg>
