<svg width="333" height="54" viewBox="0 0 333 54" fill="none" xmlns="http://www.w3.org/2000/svg">
<g clip-path="url(#clip0_26_975)">
<path d="M0 50.0111H50.3601V0H0V50.0111ZM39.1781 16.6613H27.9961V38.8854H22.3914V16.6613H11.182V11.1256H39.1507V16.6613H39.1781Z" fill="#1F00E0"/>
<path d="M72.3138 27.841C68.869 27.841 67.174 26.5384 67.174 23.3636V11.4239H64.5767V7.97764H67.174V2.57764H72.4232V7.97764H75.3486V11.451H72.4232V21.9525C72.4232 23.7435 72.7513 24.1505 74.1456 24.1505C74.5284 24.1505 74.8291 24.1234 75.3486 24.042V27.7053C74.419 27.7324 73.4621 27.841 72.3138 27.841Z" fill="black"/>
<path d="M96.2366 19.0218H82.6487C82.7854 22.9293 84.3711 24.0419 86.859 24.0419C88.7728 24.0419 90.4405 23.472 90.878 22.0339H96.0726C94.897 25.9957 91.2334 28.0308 86.695 28.0308C80.9536 28.0308 77.4268 24.3404 77.4268 17.8821C77.4268 11.1253 81.0083 7.21777 86.8043 7.21777C92.7644 7.21777 96.3186 11.4238 96.3186 18.3705L96.2366 19.0218ZM86.695 11.2339C84.3711 11.2339 83.0588 12.7535 82.7034 15.5484H90.7686C90.5226 12.672 88.9369 11.2339 86.695 11.2339Z" fill="black"/>
<path d="M109.688 12.428C106.598 12.428 105.067 13.9476 105.067 17.014V27.7054H99.7905V7.57075H105.04V11.5326C106.161 8.81899 108.266 7.24512 110.672 7.24512C110.809 7.24512 111 7.24512 111.301 7.27225V12.5637C110.617 12.4552 110.234 12.428 109.688 12.428Z" fill="black"/>
<path d="M137.738 27.7054V14.2733C137.738 12.6723 136.645 11.6682 134.895 11.6682C132.653 11.6682 131.286 13.1607 131.286 15.63V27.7054H126.037V14.2733C126.037 12.6723 124.943 11.6682 123.194 11.6682C120.952 11.6682 119.585 13.1607 119.585 15.63V27.7054H114.335V7.57075H119.557V10.0672C121.28 8.00492 122.783 7.24512 125.107 7.24512C127.623 7.24512 129.646 8.33054 130.63 10.23C132.216 8.14059 134.02 7.24512 136.563 7.24512C140.609 7.24512 143.015 9.55165 143.015 13.4592V27.7054H137.738Z" fill="black"/>
<path d="M147.963 7.57072H153.213V27.7054H147.963V7.57072ZM147.963 -0.081543H153.213V5.15564H147.963V-0.081543Z" fill="black"/>
<path d="M171.121 27.7052V15.3042C171.121 12.9163 170 11.6952 167.731 11.6952C165.188 11.6952 163.493 13.269 163.493 15.657V27.7323H158.244V7.57054H163.493V10.4741C164.997 8.24893 166.828 7.21777 169.59 7.21777C173.909 7.21777 176.397 9.74139 176.397 14.1916V27.6781H171.121V27.7052Z" fill="black"/>
<path d="M192.801 27.7054C192.309 27.1084 192.199 26.213 192.199 25.1818C190.368 27.0813 188.29 28.0582 186.048 28.0582C182.658 28.0582 179.896 26.1858 179.896 22.2783C179.896 18.615 181.838 16.9054 185.857 16.1999L187.962 15.82C190.586 15.3858 192.172 15.6029 192.172 13.4592C192.172 12.1295 191.161 11.4511 189.137 11.4511C186.54 11.4511 185.693 12.1295 185.419 14.219H180.361C180.689 9.55165 183.56 7.24512 189.028 7.24512C194.523 7.24512 197.339 9.33457 197.339 13.4321V24.612C197.339 25.6431 197.613 26.213 198.542 27.0813V27.7054H192.801ZM192.172 18.1808C191.571 18.4793 191.352 18.5607 189.958 18.8049L188.153 19.1305C185.966 19.5376 185.146 20.1074 185.146 21.627C185.146 23.1195 186.239 23.7979 187.989 23.7979C190.668 23.7979 192.145 22.0883 192.145 19.0763V18.1808H192.172Z" fill="black"/>
<path d="M207.483 0.515625H202.233V27.6784H207.483V0.515625Z" fill="black"/>
<path d="M67.1743 40.0792H69.7442V49.9294H67.1743V40.0792ZM67.1743 36.3345H69.7442V38.8852H67.1743V36.3345Z" fill="black"/>
<path d="M76.2513 50.0924C73.2439 50.0924 71.6309 48.9527 71.5762 46.809H74.0914C74.3102 47.8673 74.939 48.0843 76.1146 48.0843C77.3176 48.0843 78.0284 47.8401 78.0284 47.2431C78.0284 46.9718 77.8097 46.7818 77.1535 46.5647L74.0914 45.615C72.2597 45.0451 71.9316 44.3939 71.9316 43.1999C71.9316 41.1647 73.49 39.9165 76.0052 39.9165C78.6572 39.9165 80.2703 41.1647 80.3249 43.2542H77.837C77.8097 42.3587 77.2082 41.9245 75.9779 41.9245C75.0757 41.9245 74.5015 42.2773 74.5015 42.8472C74.5015 43.2542 74.6929 43.417 75.4038 43.607L78.6572 44.5296C79.9695 44.9095 80.5983 45.7507 80.5983 46.8904V47.0261C80.5983 48.9798 79.04 50.0924 76.2513 50.0924Z" fill="black"/>
<path d="M86.8045 50.0921C83.7424 50.0921 81.9106 48.2469 81.9106 45.0177C81.9106 41.7886 83.7698 39.9434 86.8045 39.9434C89.9212 39.9434 91.7257 41.7614 91.7257 45.0991C91.6983 48.2197 89.8119 50.0921 86.8045 50.0921ZM86.8045 41.9785C85.4102 41.9785 84.4806 43.1182 84.4806 45.0177C84.4806 46.8901 85.4102 48.0569 86.8045 48.0569C88.1715 48.0569 89.1284 46.9172 89.1284 45.072C89.1284 43.1182 88.1988 41.9785 86.8045 41.9785Z" fill="black"/>
<path d="M99.8453 49.9294V48.6268C99.1071 49.6037 98.2049 50.0922 96.8652 50.0922C94.7601 50.0922 93.5298 48.8439 93.5298 46.6731V40.0791H96.0997V46.1575C96.0997 47.3515 96.6465 47.9213 97.7401 47.9213C98.9978 47.9213 99.818 47.1615 99.818 45.9947V40.0791H102.388V49.9294H99.8453Z" fill="black"/>
<path d="M109.688 42.4401C108.184 42.4401 107.419 43.1999 107.419 44.6924V49.9296H104.849V40.0793H107.419V42.006C107.965 40.6763 109.004 39.9165 110.18 39.9165C110.262 39.9165 110.344 39.9165 110.481 39.9436V42.5215C110.125 42.4673 109.961 42.4401 109.688 42.4401Z" fill="black"/>
<path d="M116.113 50.0924C113.187 50.0924 111.465 48.3286 111.465 45.0723C111.465 41.7075 113.187 39.9165 116.14 39.9165C118.628 39.9165 120.241 41.3547 120.432 43.7698H117.972C117.671 42.4673 117.179 41.9788 116.14 41.9788C114.527 41.9788 114.035 43.2813 114.035 45.0723C114.035 46.9989 114.828 48.0301 116.14 48.0301C117.124 48.0301 117.644 47.5416 117.972 46.5105H120.432C120.186 48.5999 118.519 50.0924 116.113 50.0924Z" fill="black"/>
<path d="M130.657 45.6693H124.014C124.096 47.5959 124.861 48.1386 126.064 48.1386C126.994 48.1386 127.814 47.8673 128.033 47.1617H130.575C130.001 49.0884 128.197 50.0924 125.982 50.0924C123.166 50.0924 121.444 48.2743 121.444 45.1266C121.444 41.816 123.194 39.9165 126.037 39.9165C128.962 39.9165 130.685 41.9788 130.685 45.3708L130.657 45.6693ZM126.01 41.8703C124.861 41.8703 124.233 42.6301 124.068 43.9869H128.005C127.869 42.5758 127.103 41.8703 126.01 41.8703Z" fill="black"/>
<path d="M238.458 3.66318H241.028V13.5134H238.458V3.66318ZM238.458 -0.081543H241.028V2.46921H238.458V-0.081543Z" fill="black"/>
<path d="M249.805 13.5136V7.43516C249.805 6.26833 249.258 5.67134 248.164 5.67134C246.907 5.67134 246.087 6.43114 246.087 7.59797V13.5136H243.517V3.6633H246.087V5.07436C246.825 3.98893 247.727 3.50049 249.067 3.50049C251.172 3.50049 252.402 4.74873 252.402 6.91958V13.5136H249.805Z" fill="black"/>
<path d="M257.597 13.5676C255.902 13.5676 255.081 12.9435 255.081 11.3697V5.56262H253.824V3.88021H255.081V1.24805H257.651V3.88021H259.073V5.56262H257.651V10.6913C257.651 11.5596 257.815 11.7767 258.499 11.7767C258.69 11.7767 258.827 11.7496 259.073 11.7224V13.5134C258.636 13.5134 258.171 13.5676 257.597 13.5676Z" fill="black"/>
<path d="M269.298 9.25325H262.654C262.736 11.1799 263.502 11.7226 264.705 11.7226C265.634 11.7226 266.455 11.4512 266.673 10.7457H269.216C268.642 12.6723 266.837 13.6764 264.623 13.6764C261.807 13.6764 260.084 11.8583 260.084 8.71054C260.084 5.39999 261.834 3.50049 264.678 3.50049C267.603 3.50049 269.325 5.5628 269.325 8.95476L269.298 9.25325ZM264.623 5.45426C263.475 5.45426 262.846 6.21406 262.682 7.57084H266.619C266.509 6.15979 265.744 5.45426 264.623 5.45426Z" fill="black"/>
<path d="M273.7 0.216797H271.13V13.5133H273.7V0.216797Z" fill="black"/>
<path d="M278.785 0.216797H276.215V13.5133H278.785V0.216797Z" fill="black"/>
<path d="M281.328 3.66318H283.898V13.5134H281.328V3.66318ZM281.328 -0.081543H283.898V2.46921H281.328V-0.081543Z" fill="black"/>
<path d="M290.432 17.4754C287.725 17.4754 286.085 16.2814 286.03 14.6804H288.682C288.874 15.4402 289.53 15.8201 290.487 15.8201C291.772 15.8201 292.674 15.006 292.674 13.812V12.3467C291.717 13.2965 291.033 13.6492 289.858 13.6492C287.425 13.6492 285.812 11.7226 285.812 8.6834C285.812 5.64421 287.561 3.50049 289.912 3.50049C291.061 3.50049 291.908 4.01607 292.674 5.1829V3.6633H295.107V13.8392C295.134 16.1457 293.412 17.4754 290.432 17.4754ZM290.487 5.64421C289.229 5.64421 288.381 6.81104 288.381 8.6834C288.381 10.4744 289.229 11.5598 290.432 11.5598C291.772 11.5598 292.701 10.4744 292.701 8.6834C292.728 6.83818 291.772 5.64421 290.487 5.64421Z" fill="black"/>
<path d="M306.043 9.25325H299.399C299.481 11.1799 300.247 11.7226 301.45 11.7226C302.379 11.7226 303.199 11.4512 303.418 10.7457H305.961C305.387 12.6723 303.582 13.6764 301.368 13.6764C298.552 13.6764 296.829 11.8583 296.829 8.71054C296.829 5.39999 298.579 3.50049 301.422 3.50049C304.348 3.50049 306.07 5.5628 306.07 8.95476L306.043 9.25325ZM301.395 5.45426C300.247 5.45426 299.618 6.21406 299.454 7.57084H303.391C303.254 6.15979 302.489 5.45426 301.395 5.45426Z" fill="black"/>
<path d="M314.081 13.5136V7.43516C314.081 6.26833 313.534 5.67134 312.44 5.67134C311.183 5.67134 310.362 6.43114 310.362 7.59797V13.5136H307.792V3.6633H310.362V5.07436C311.101 3.98893 312.003 3.50049 313.342 3.50049C315.448 3.50049 316.678 4.74873 316.678 6.91958V13.5136H314.081Z" fill="black"/>
<path d="M321.9 13.5676C320.205 13.5676 319.385 12.9435 319.385 11.3697V5.56262H318.127V3.88021H319.385V1.24805H321.955V3.88021H323.377V5.56262H321.955V10.6913C321.955 11.5596 322.119 11.7767 322.803 11.7767C322.994 11.7767 323.131 11.7496 323.377 11.7224V13.5134C322.939 13.5134 322.474 13.5676 321.9 13.5676Z" fill="black"/>
<path d="M241.028 18.4248H238.458V31.7213H241.028V18.4248Z" fill="black"/>
<path d="M247.891 31.8841C244.829 31.8841 242.997 30.0389 242.997 26.8097C242.997 23.5806 244.856 21.7354 247.891 21.7354C251.008 21.7354 252.812 23.5534 252.812 26.8911C252.785 30.0389 250.898 31.8841 247.891 31.8841ZM247.891 23.7705C246.497 23.7705 245.567 24.9102 245.567 26.8097C245.567 28.6821 246.497 29.8489 247.891 29.8489C249.258 29.8489 250.215 28.7092 250.215 26.864C250.215 24.9102 249.285 23.7705 247.891 23.7705Z" fill="black"/>
<path d="M258.772 35.6834C256.066 35.6834 254.425 34.4894 254.371 32.8884H257.023C257.214 33.6482 257.87 34.0281 258.827 34.0281C260.112 34.0281 261.014 33.214 261.014 32.0201V30.5547C260.057 31.5045 259.374 31.8572 258.198 31.8572C255.765 31.8572 254.152 29.9306 254.152 26.8914C254.152 23.8522 255.902 21.7085 258.253 21.7085C259.401 21.7085 260.249 22.2241 261.014 23.3909V21.8713H263.447V32.0472C263.502 34.3537 261.78 35.6834 258.772 35.6834ZM258.854 23.8522C257.597 23.8522 256.749 25.0191 256.749 26.8914C256.749 28.6824 257.597 29.7678 258.8 29.7678C260.139 29.7678 261.069 28.6824 261.069 26.8914C261.096 25.0462 260.139 23.8522 258.854 23.8522Z" fill="black"/>
<path d="M266.018 21.871H268.588V31.7213H266.018V21.871ZM266.018 18.4248H268.588V20.9756H266.018V18.4248Z" fill="black"/>
<path d="M275.094 31.8844C272.087 31.8844 270.474 30.7447 270.419 28.601H272.934C273.153 29.6592 273.782 29.8763 274.957 29.8763C276.16 29.8763 276.871 29.6321 276.871 29.0351C276.871 28.7638 276.652 28.5738 275.996 28.3567L272.934 27.407C271.102 26.8371 270.774 26.1859 270.774 24.9919C270.774 22.9567 272.333 21.7085 274.848 21.7085C277.5 21.7085 279.14 22.9567 279.168 25.0462H276.68C276.652 24.1507 276.051 23.7165 274.821 23.7165C273.918 23.7165 273.344 24.0693 273.344 24.6391C273.344 25.0462 273.536 25.209 274.247 25.3989L277.5 26.3216C278.812 26.7015 279.441 27.5427 279.441 28.6824V28.818C279.441 30.7989 277.883 31.8844 275.094 31.8844Z" fill="black"/>
<path d="M284.144 31.8028C282.448 31.8028 281.628 31.1787 281.628 29.6048V23.7706H280.371V22.0882H281.628V19.4561H284.198V22.0882H285.62V23.7706H284.198V28.8993C284.198 29.7676 284.362 29.9847 285.046 29.9847C285.237 29.9847 285.374 29.9576 285.647 29.9304V31.7214C285.155 31.7485 284.69 31.8028 284.144 31.8028Z" fill="black"/>
<path d="M287.452 21.871H290.022V31.7213H287.452V21.871ZM287.452 18.4248H290.022V20.9756H287.452V18.4248Z" fill="black"/>
<path d="M296.583 31.8844C293.658 31.8844 291.936 30.1206 291.936 26.8643C291.936 23.4995 293.658 21.7085 296.611 21.7085C299.099 21.7085 300.712 23.1467 300.903 25.5618H298.442C298.142 24.2592 297.65 23.7708 296.611 23.7708C294.998 23.7708 294.505 25.0733 294.505 26.8643C294.505 28.7909 295.298 29.8221 296.611 29.8221C297.595 29.8221 298.114 29.3336 298.442 28.3025H300.903C300.657 30.419 298.989 31.8844 296.583 31.8844Z" fill="black"/>
<path d="M306.754 31.8844C303.746 31.8844 302.133 30.7447 302.079 28.601H304.594C304.813 29.6592 305.441 29.8763 306.617 29.8763C307.82 29.8763 308.531 29.6321 308.531 29.0351C308.531 28.7638 308.312 28.5738 307.656 28.3567L304.567 27.407C302.735 26.8371 302.407 26.1859 302.407 24.9919C302.407 22.9567 303.965 21.7085 306.48 21.7085C309.132 21.7085 310.773 22.9567 310.8 25.0462H308.312C308.285 24.1507 307.683 23.7165 306.453 23.7165C305.551 23.7165 304.977 24.0693 304.977 24.6391C304.977 25.0462 305.168 25.209 305.879 25.3989L309.132 26.3216C310.445 26.7015 311.073 27.5427 311.073 28.6824V28.818C311.073 30.7989 309.542 31.8844 306.754 31.8844Z" fill="black"/>
<path d="M246.825 46.9987C246.825 48.0027 246.442 48.7625 245.704 49.2781C244.966 49.7937 243.9 50.065 242.478 50.065C239.416 50.065 237.857 48.9796 237.803 46.7816H240.318C240.427 47.2701 240.646 47.6228 240.947 47.7856C241.248 47.9485 241.712 48.057 242.341 48.057C243.626 48.057 244.255 47.7856 244.255 47.2158C244.255 46.9444 243.982 46.7274 243.38 46.5374L240.318 45.5877C239.443 45.3163 238.869 45.0178 238.596 44.665C238.295 44.3123 238.158 43.8238 238.158 43.1726C238.158 42.1686 238.514 41.3545 239.252 40.7846C239.99 40.1877 240.974 39.8892 242.232 39.8892C243.571 39.8892 244.61 40.1877 245.376 40.7846C246.141 41.3816 246.524 42.1957 246.551 43.2268H244.064C244.064 42.3314 243.435 41.8972 242.204 41.8972C241.74 41.8972 241.384 41.9786 241.111 42.1414C240.837 42.3042 240.701 42.5213 240.701 42.8198C240.701 43.0369 240.755 43.1726 240.892 43.2811C241.001 43.3897 241.248 43.4982 241.603 43.5796L244.856 44.5022C246.141 44.8821 246.798 45.6691 246.798 46.863V46.9987H246.825Z" fill="black"/>
<path d="M258.007 44.9906C258.007 46.4831 257.624 47.7042 256.831 48.6539C256.039 49.6037 255.054 50.0921 253.851 50.0921C252.566 50.0921 251.664 49.6037 251.09 48.6268V53.9182H248.52V40.1062H251.09V41.5715C251.691 40.4861 252.621 39.9434 253.851 39.9434C255.136 39.9434 256.148 40.4047 256.886 41.3544C257.652 42.277 258.007 43.4981 258.007 44.9906ZM255.437 45.0449C255.437 44.1223 255.246 43.3896 254.863 42.8469C254.48 42.3042 253.933 42.0328 253.277 42.0328C252.621 42.0328 252.102 42.3042 251.719 42.8197C251.309 43.3353 251.117 44.068 251.117 44.9906C251.117 45.9132 251.309 46.6187 251.719 47.1615C252.129 47.7042 252.648 47.9484 253.277 47.9484C253.906 47.9484 254.425 47.677 254.836 47.1615C255.246 46.6187 255.437 45.9132 255.437 45.0449Z" fill="black"/>
<path d="M268.314 49.9296H265.525C265.334 49.6853 265.225 49.2783 265.225 48.6813C264.323 49.6039 263.311 50.0924 262.217 50.0924C261.342 50.0924 260.632 49.8482 260.057 49.3597C259.483 48.8713 259.21 48.1657 259.21 47.2703C259.21 46.4019 259.456 45.7235 259.921 45.2622C260.386 44.8009 261.124 44.4753 262.135 44.2853L263.174 44.0954C263.311 44.0683 263.53 44.0411 263.748 44.014C263.994 43.9869 264.158 43.9597 264.268 43.9326C264.377 43.9054 264.514 43.8783 264.651 43.824C264.815 43.7698 264.897 43.7155 264.979 43.6612C265.033 43.607 265.088 43.4984 265.143 43.3899C265.197 43.2813 265.225 43.1185 265.225 42.9557C265.225 42.3044 264.733 41.9788 263.748 41.9788C263.12 41.9788 262.655 42.0874 262.409 42.2773C262.163 42.4673 261.999 42.82 261.917 43.3356H259.429C259.593 41.0562 260.987 39.9165 263.666 39.9165C266.373 39.9165 267.713 40.9205 267.713 42.9557V48.41C267.713 48.8713 267.904 49.2512 268.287 49.6039V49.9296H268.314ZM265.225 45.7235V45.2894C265.006 45.3979 264.623 45.5065 264.131 45.5879L263.256 45.7507C262.709 45.8592 262.327 45.9949 262.108 46.1577C261.889 46.3205 261.78 46.5919 261.78 46.9718C261.78 47.6773 262.245 48.0301 263.174 48.0301C263.83 48.0301 264.323 47.8401 264.678 47.4331C265.033 47.0261 265.225 46.4562 265.225 45.7235Z" fill="black"/>
<path d="M278.484 46.5105C278.375 47.5688 277.91 48.4371 277.117 49.0884C276.324 49.7396 275.34 50.0924 274.164 50.0924C272.688 50.0924 271.54 49.6582 270.72 48.7899C269.899 47.9215 269.517 46.7004 269.517 45.0723C269.517 43.417 269.927 42.1416 270.747 41.2462C271.567 40.3507 272.715 39.9165 274.219 39.9165C275.449 39.9165 276.461 40.2693 277.226 40.9477C277.992 41.626 278.429 42.5758 278.511 43.7698H276.051C275.914 43.1185 275.695 42.6572 275.422 42.3858C275.149 42.1145 274.739 41.9788 274.219 41.9788C272.825 41.9788 272.114 43.01 272.114 45.0723C272.114 46.022 272.305 46.7547 272.661 47.2703C273.016 47.7858 273.536 48.0301 274.192 48.0301C274.684 48.0301 275.067 47.9215 275.34 47.6773C275.613 47.4331 275.859 47.0532 276.023 46.5376H278.484V46.5105Z" fill="black"/>
<path d="M288.764 45.3708L288.737 45.6693H282.093C282.121 46.5919 282.312 47.216 282.668 47.5959C283.023 47.9487 283.515 48.1386 284.144 48.1386C285.238 48.1386 285.894 47.813 286.112 47.1617H288.655C288.382 48.1115 287.835 48.8441 287.015 49.3326C286.194 49.8482 285.21 50.0924 284.062 50.0924C282.64 50.0924 281.519 49.6582 280.726 48.7899C279.934 47.9215 279.523 46.7004 279.523 45.1266C279.523 43.4984 279.934 42.1959 280.754 41.3004C281.574 40.3778 282.695 39.9165 284.117 39.9165C285.566 39.9165 286.714 40.4049 287.534 41.3547C288.354 42.3316 288.764 43.6612 288.764 45.3708ZM286.085 43.9869C286.03 43.2813 285.812 42.7657 285.456 42.413C285.101 42.0602 284.636 41.8703 284.089 41.8703C282.968 41.8703 282.312 42.5758 282.148 43.9869H286.085Z" fill="black"/>
<path d="M298.88 46.9987C298.88 48.0027 298.497 48.7625 297.759 49.2781C297.021 49.7937 295.955 50.065 294.533 50.065C291.471 50.065 289.913 48.9796 289.858 46.7816H292.373C292.483 47.2701 292.701 47.6228 293.002 47.7856C293.303 47.9485 293.768 48.057 294.396 48.057C295.681 48.057 296.31 47.7856 296.31 47.2158C296.31 46.9444 296.037 46.7274 295.435 46.5374L292.373 45.5877C291.498 45.3163 290.924 45.0178 290.651 44.665C290.35 44.3123 290.213 43.8238 290.213 43.1726C290.213 42.1686 290.569 41.3545 291.307 40.7846C292.045 40.1877 293.029 39.8892 294.287 39.8892C295.627 39.8892 296.666 40.1877 297.431 40.7846C298.197 41.3816 298.579 42.1957 298.607 43.2268H296.119C296.119 42.3314 295.49 41.8972 294.26 41.8972C293.795 41.8972 293.439 41.9786 293.166 42.1414C292.893 42.3042 292.756 42.5213 292.756 42.8198C292.756 43.0369 292.811 43.1726 292.947 43.2811C293.057 43.3897 293.303 43.4982 293.658 43.5796L296.912 44.5022C298.197 44.8821 298.853 45.6691 298.853 46.863V46.9987H298.88Z" fill="black"/>
<path d="M39.1782 11.0439H27.9688H22.3915H11.1821V16.5796H22.3915V38.8037H27.9688V16.5796H39.1782V11.0439Z" fill="white"/>
<g clip-path="url(#clip1_26_975)">
<path d="M223.968 0H221.18V49.9839H223.968V0Z" fill="black"/>
</g>
</g>
<defs>
<clipPath id="clip0_26_975">
<rect width="333" height="54" fill="white"/>
</clipPath>
<clipPath id="clip1_26_975">
<rect width="2.78865" height="49.9839" fill="white" transform="translate(221.18)"/>
</clipPath>
</defs>
</svg>
