<svg width="209" height="48" viewBox="0 0 209 48" fill="none" xmlns="http://www.w3.org/2000/svg">
<g clip-path="url(#clip0_26_2579)">
<path d="M19.9459 9.8745H24.9301V34.5675H19.9459V9.8745ZM0 44.4465H44.8759V0H0V44.4465Z" fill="#FF5F05"/>
<path d="M59.8375 24.6915H64.5218V6.79654H59.8375V24.6915ZM59.8375 4.64104H64.5218V3.78893e-05H59.8375V4.64104V4.64104ZM76.397 24.99C70.91 24.99 67.9991 22.935 67.8658 19.023H72.4593C72.8606 20.946 73.9995 21.3435 76.1486 21.3435C78.2977 21.3435 79.6304 20.9145 79.6304 19.818C79.6304 19.32 79.2291 18.9555 78.0584 18.594L72.4593 16.869C69.1123 15.84 68.511 14.649 68.511 12.459C68.511 8.80654 71.3522 6.49504 75.9366 6.49504C80.792 6.49504 83.7347 8.77954 83.8043 12.561H79.2836C79.2533 10.935 78.1447 10.14 75.9032 10.14C74.2676 10.14 73.1923 10.803 73.1923 11.7975C73.1923 12.5295 73.5285 12.825 74.834 13.1925L80.7557 14.8815C83.1304 15.576 84.3056 17.1015 84.3056 19.1565V19.389C84.3056 23.0025 81.4932 24.9885 76.4061 24.9885L76.397 24.99ZM95.6022 24.99C90.0683 24.99 86.6698 21.6405 86.6698 15.744C86.6698 9.84904 90.0456 6.49504 95.5704 6.49504C101.224 6.49504 104.536 9.81004 104.536 15.8775C104.536 21.609 101.091 24.9885 95.6022 24.9885V24.99ZM95.6022 10.2405C93.0579 10.2405 91.3511 12.3285 91.3511 15.7455C91.3511 19.161 93.0564 21.225 95.6022 21.225C98.1466 21.225 99.8504 19.1385 99.8504 15.7905C99.8504 12.2775 98.1799 10.2225 95.6022 10.2225V10.2405ZM119.363 24.693V22.3395C118.759 23.1992 117.945 23.8932 116.997 24.3568C116.049 24.8203 114.998 25.0382 113.941 24.99C110.094 24.99 107.885 22.737 107.885 18.792V6.79204H112.58V17.814C112.58 19.965 113.585 21.0105 115.592 21.0105C117.864 21.0105 119.372 19.6185 119.372 17.4945V6.79204H124.058V24.693H119.363ZM137.296 11.1045C134.555 11.1045 133.181 12.462 133.178 15.1785V24.693H128.499V6.79804H133.178V10.308C134.184 7.88854 136.056 6.49504 138.2 6.49504C138.391 6.49354 138.579 6.50554 138.768 6.53254V11.235C138.283 11.147 137.79 11.1028 137.296 11.103V11.1045ZM149.011 24.99C143.657 24.99 140.545 21.792 140.545 15.8775C140.545 9.77854 143.689 6.49504 149.076 6.49504C153.595 6.49504 156.542 9.11254 156.874 13.488H152.391C151.857 11.136 150.952 10.2405 149.044 10.2405C146.101 10.2405 145.229 12.5925 145.229 15.8775C145.229 19.3575 146.668 21.243 149.044 21.243C150.851 21.243 151.811 20.3295 152.391 18.5025H156.874C156.441 22.3125 153.392 24.9975 149.034 24.9975L149.011 24.99ZM175.545 16.968H163.43C163.564 20.448 164.971 21.444 167.18 21.444C168.886 21.444 170.358 20.946 170.759 19.6545H175.371C174.333 23.166 171.054 24.9885 167.005 24.9885C161.886 24.9885 158.735 21.7095 158.735 15.978C158.735 9.97504 161.917 6.49504 167.101 6.49504C172.423 6.49504 175.569 10.2405 175.569 16.407L175.545 16.968ZM167.045 10.05C164.971 10.05 163.818 11.421 163.5 13.8915H170.685C170.45 11.3415 169.043 10.0515 167.036 10.0515L167.045 10.05ZM59.8345 35.6955H62.141V44.4465H59.8345V35.6955ZM59.8345 32.3745H62.141V34.659H59.8345V32.3745ZM69.9316 44.445V39.051C69.9316 38.016 69.4379 37.476 68.461 37.476C68.2226 37.4538 67.9821 37.482 67.7555 37.559C67.529 37.6359 67.3216 37.7597 67.1471 37.9222C66.9726 38.0846 66.835 38.282 66.7435 38.5012C66.652 38.7205 66.6086 38.9565 66.6164 39.1935V44.4465H64.3098V35.694H66.6164V36.96C66.8856 36.5073 67.2751 36.1363 67.7424 35.8874C68.2097 35.6386 68.7369 35.5214 69.2667 35.5485C71.1492 35.5485 72.2276 36.6495 72.2276 38.5815V44.4465H69.9316V44.445ZM79.9106 44.4465V43.4415C79.6314 43.8179 79.2625 44.1201 78.8368 44.3211C78.4111 44.5221 77.9418 44.6157 77.4707 44.5935C75.1324 44.5935 73.7814 42.5655 73.7814 40.089C73.7814 37.4445 75.3807 35.55 77.4707 35.55C77.9566 35.5236 78.4404 35.6291 78.8701 35.8551C79.2998 36.0812 79.6591 36.4191 79.9091 36.8325V32.6355H82.2156V44.4465H79.9106V44.4465ZM77.9917 37.4535C76.8483 37.4535 76.0592 38.4765 76.0592 40.098C76.0592 41.7195 76.8468 42.708 77.9917 42.708C79.1352 42.708 79.9242 41.715 79.9242 40.131C79.9242 38.4585 79.1533 37.4535 77.9917 37.4535V37.4535ZM89.8396 44.4465V43.296C89.5446 43.7169 89.1465 44.0568 88.6827 44.2837C88.2189 44.5106 87.7045 44.6172 87.1877 44.5935C85.3067 44.5935 84.2269 43.4925 84.2269 41.5605V35.6955H86.5335V41.1075C86.5335 42.1575 87.0211 42.6795 88.0025 42.6795C88.2409 42.7013 88.4813 42.6727 88.7077 42.5956C88.9341 42.5185 89.1414 42.3947 89.3159 42.2323C89.4904 42.07 89.6282 41.8728 89.72 41.6538C89.8118 41.4349 89.8557 41.1991 89.8487 40.962V35.709H92.1537V44.46L89.8396 44.4465V44.4465ZM97.924 44.592C95.2388 44.592 93.8151 43.587 93.7743 41.6745H95.9778C96.1747 42.615 96.7351 42.8115 97.7801 42.8115C98.8281 42.8115 99.4824 42.6015 99.4824 42.0615C99.4824 41.82 99.284 41.6415 98.713 41.463L95.9778 40.623C94.3452 40.1205 94.0499 39.537 94.0499 38.4675C94.0499 36.6675 95.4326 35.5485 97.6786 35.5485C100.055 35.5485 101.494 36.6675 101.525 38.5185H99.3158C99.3158 37.7235 98.7584 37.3335 97.665 37.3335C96.8623 37.3335 96.3368 37.6545 96.3368 38.1435C96.3368 38.499 96.5034 38.646 97.1395 38.8245L100.035 39.6495C101.198 39.9885 101.769 40.737 101.769 41.742V41.8515C101.769 43.62 100.387 44.592 97.9103 44.592H97.924ZM105.969 44.511C104.467 44.511 103.727 43.944 103.727 42.5655V37.38H102.599V35.8725H103.729V33.525H106.034V35.8725H107.306V37.38H106.034V41.9475C106.034 42.723 106.176 42.9015 106.785 42.9015C106.961 42.897 107.134 42.8805 107.308 42.8505V44.4405C106.902 44.4405 106.49 44.505 105.984 44.505L105.969 44.511ZM113.155 37.8C111.81 37.8 111.141 38.466 111.144 39.795V44.445H108.839V35.694H111.144V37.4115C111.633 36.2295 112.527 35.5485 113.597 35.5485C113.688 35.541 113.782 35.541 113.875 35.5485V37.8315C113.637 37.7872 113.397 37.7646 113.155 37.764V37.8ZM115.283 35.6955H117.588V44.4465H115.283V35.6955ZM115.283 32.3745H117.588V34.659H115.283V32.3745ZM124.818 44.445C124.611 44.1173 124.518 43.7307 124.556 43.3455C124.222 43.727 123.811 44.035 123.349 44.2496C122.887 44.4643 122.386 44.5809 121.876 44.592C120.401 44.592 119.192 43.779 119.192 42.081C119.192 40.491 120.04 39.747 121.794 39.441L122.716 39.276C123.86 39.084 124.561 39.18 124.561 38.256C124.561 37.6725 124.099 37.38 123.237 37.38C122.107 37.38 121.729 37.6725 121.614 38.5815H119.404C119.552 36.5535 120.788 35.5485 123.186 35.5485C125.585 35.5485 126.802 36.4635 126.802 38.2395V43.0995C126.793 43.307 126.836 43.5134 126.927 43.7006C127.018 43.8877 127.154 44.0496 127.323 44.172V44.4465H124.818V44.445ZM124.543 40.3125C124.24 40.4625 123.914 40.557 123.578 40.5915L122.79 40.7325C121.844 40.9125 121.48 41.1585 121.48 41.82C121.48 42.483 121.941 42.7605 122.725 42.7605C123.887 42.7605 124.543 42.0165 124.543 40.701V40.3125V40.3125ZM131.219 32.6355H128.929V44.4465H131.22V32.6355H131.219ZM138.022 35.6955H140.327V44.4465H138.022V35.6955ZM138.022 32.3745H140.327V34.659H138.022V32.3745ZM146.124 44.592C143.441 44.592 142.015 43.587 141.975 41.6745H144.214C144.413 42.615 144.972 42.8115 146.017 42.8115C147.065 42.8115 147.719 42.6015 147.719 42.0615C147.719 41.82 147.522 41.6415 146.95 41.463L144.214 40.623C142.582 40.1205 142.286 39.537 142.286 38.4675C142.286 36.6675 143.671 35.5485 145.917 35.5485C148.291 35.5485 149.73 36.6675 149.764 38.5185H147.552C147.552 37.7235 146.995 37.3335 145.902 37.3335C145.099 37.3335 144.575 37.6545 144.575 38.1435C144.575 38.499 144.741 38.646 145.378 38.8245L148.273 39.6495C149.435 39.9885 150.007 40.737 150.007 41.742V41.8515C150.007 43.62 148.623 44.592 146.145 44.592H146.124ZM155.513 44.592C152.796 44.592 151.145 42.957 151.145 40.071C151.145 37.1835 152.796 35.5485 155.494 35.5485C158.261 35.5485 159.88 37.17 159.88 40.116C159.88 42.921 158.196 44.574 155.513 44.574V44.592ZM155.513 37.362C154.268 37.362 153.433 38.385 153.433 40.053C153.433 41.7195 154.268 42.7425 155.513 42.7425C156.757 42.7425 157.587 41.7195 157.587 40.0845C157.587 38.367 156.771 37.344 155.513 37.344V37.362ZM167.132 44.4465V43.296C166.837 43.7167 166.438 44.0564 165.975 44.2833C165.511 44.5102 164.997 44.6169 164.48 44.5935C162.599 44.5935 161.519 43.4925 161.519 41.5605V35.6955H163.826V41.1075C163.826 42.1575 164.313 42.6795 165.296 42.6795C165.534 42.7013 165.775 42.6727 166.001 42.5956C166.227 42.5185 166.435 42.3947 166.609 42.2323C166.783 42.0699 166.921 41.8727 167.013 41.6537C167.104 41.4348 167.148 41.199 167.141 40.962V35.709H169.447V44.46L167.132 44.4465V44.4465ZM175.902 37.8C174.562 37.8 173.891 38.466 173.891 39.795V44.445H171.586V35.694H173.891V37.4115C174.38 36.2295 175.275 35.5485 176.344 35.5485C176.437 35.541 176.529 35.541 176.622 35.5485V37.8315C176.384 37.7872 176.144 37.7647 175.902 37.764V37.8ZM181.624 44.592C179.004 44.592 177.473 43.02 177.473 40.134C177.473 37.152 179.013 35.5665 181.624 35.5665C183.832 35.5665 185.271 36.8505 185.437 38.9865H183.243C182.984 37.836 182.542 37.398 181.606 37.398C180.167 37.398 179.761 38.5485 179.761 40.1385C179.761 41.8425 180.467 42.7635 181.606 42.7635C182.49 42.7635 182.948 42.3075 183.243 41.4225H185.437C185.225 43.2855 183.735 44.5965 181.592 44.5965L181.624 44.592ZM187.122 35.6955H189.427V44.4465H187.122V35.6955ZM187.122 32.3745H189.427V34.659H187.122V32.3745ZM197.216 44.445V39.051C197.216 38.016 196.722 37.476 195.745 37.476C195.507 37.4535 195.266 37.4816 195.039 37.5584C194.813 37.6353 194.605 37.7591 194.431 37.9216C194.256 38.0841 194.118 38.2816 194.027 38.501C193.936 38.7203 193.892 38.9564 193.9 39.1935V44.4465H191.594V35.694H193.9V36.96C194.169 36.5068 194.559 36.1355 195.026 35.8865C195.493 35.6376 196.021 35.5207 196.551 35.5485C198.433 35.5485 199.512 36.6495 199.512 38.5815V44.4465H197.216V44.445ZM205.217 47.9595C202.795 47.9595 201.338 46.9095 201.306 45.4845H203.676C203.857 46.146 204.428 46.503 205.295 46.503C205.544 46.5243 205.795 46.494 206.031 46.414C206.267 46.3339 206.484 46.206 206.668 46.0383C206.851 45.8706 206.998 45.6669 207.097 45.4401C207.197 45.2132 207.247 44.9684 207.246 44.721V43.4235C206.392 44.2695 205.769 44.5755 204.741 44.5755C202.565 44.5755 201.126 42.8715 201.126 40.149C201.126 37.4265 202.694 35.532 204.788 35.532C205.803 35.532 206.559 35.988 207.246 37.0245V35.655H209.422V44.763C209.422 46.818 207.887 48 205.221 48L205.217 47.9595V47.9595ZM205.271 37.4535C204.161 37.4535 203.427 38.4915 203.427 40.1445C203.427 41.7975 204.184 42.7065 205.271 42.7065C206.466 42.7065 207.301 41.7345 207.301 40.1445C207.301 38.5545 206.425 37.4535 205.271 37.4535ZM180.45 7.40854C179.959 7.40795 179.473 7.31153 179.019 7.12479C178.565 6.93805 178.153 6.66465 177.806 6.32019C177.459 5.97573 177.184 5.56696 176.997 5.11722C176.809 4.66748 176.713 4.18559 176.714 3.69904C176.715 3.21249 176.812 2.73082 177 2.28154C177.189 1.83225 177.465 1.42415 177.813 1.08053C178.161 0.736902 178.573 0.46449 179.027 0.278842C179.481 0.0931944 179.968 -0.00205307 180.459 -0.00146211C181.451 -0.000268622 182.402 0.391223 183.103 1.08689C183.804 1.78256 184.197 2.72541 184.196 3.70804C184.194 4.69066 183.799 5.63257 183.097 6.32655C182.394 7.02053 181.442 7.40973 180.45 7.40854V7.40854ZM180.45 0.625538C180.042 0.626129 179.638 0.706309 179.262 0.861502C178.885 1.01669 178.543 1.24386 178.255 1.53003C177.966 1.81619 177.738 2.15576 177.583 2.52933C177.427 2.90291 177.347 3.30318 177.348 3.70729C177.348 4.1114 177.429 4.51143 177.586 4.88456C177.743 5.25768 177.972 5.59658 178.261 5.88191C178.55 6.16725 178.893 6.39342 179.27 6.54752C179.647 6.70162 180.051 6.78063 180.459 6.78004C181.283 6.77884 182.073 6.45349 182.655 5.87555C183.237 5.29761 183.563 4.51443 183.562 3.69829C183.56 2.88215 183.232 2.09991 182.648 1.52366C182.065 0.947409 181.274 0.624344 180.45 0.625538V0.625538ZM181.233 5.78254C181.083 5.55579 181.018 5.28391 181.05 5.01454V4.60504C181.05 4.31854 180.897 4.21354 180.588 4.21354H179.634V5.78404H178.559V1.64854H181.008C181.17 1.62864 181.335 1.644 181.491 1.69355C181.648 1.7431 181.791 1.82566 181.912 1.93551C182.032 2.04536 182.128 2.17988 182.191 2.32976C182.254 2.47964 182.283 2.6413 182.277 2.80354C182.288 3.00806 182.237 3.21121 182.129 3.38592C182.021 3.56064 181.861 3.69864 181.672 3.78154C182.092 3.96454 182.133 4.13404 182.133 5.25154C182.134 5.30736 182.154 5.36123 182.189 5.40505C182.224 5.44887 182.272 5.48027 182.327 5.49454V5.78254H181.233V5.78254ZM180.644 2.49754H179.634V3.35704H180.644C181.104 3.35704 181.201 3.22054 181.201 2.90104C181.201 2.58004 181.073 2.48404 180.644 2.48404" fill="black"/>
<path d="M24.93 9.87451H19.9458V34.566H24.93V9.87451Z" fill="white"/>
</g>
<defs>
<clipPath id="clip0_26_2579">
<rect width="209" height="48" fill="white"/>
</clipPath>
</defs>
</svg>
