<svg width="29" height="30" viewBox="0 0 29 30" fill="none" xmlns="http://www.w3.org/2000/svg">
<path d="M4.49699 3.21501C3.63153 4.70863 3.56173 4.87614 3.78508 5.02969C3.91071 5.12741 7.72154 7.37482 12.2303 10.041C16.7531 12.6932 20.4522 14.9127 20.4522 14.9686C20.4522 15.0104 16.7112 17.2439 12.1326 19.938C7.55403 22.6181 3.75716 24.8656 3.67341 24.9074C3.51986 25.0051 5.30662 28.2437 5.51601 28.2437C5.57184 28.2437 10.0527 25.6473 15.4549 22.4646L25.2681 16.6855L25.296 14.9686L25.3379 13.2376L15.4828 7.44461C10.0527 4.26194 5.57184 1.63764 5.52996 1.62368C5.48809 1.59576 5.01348 2.32163 4.49699 3.21501Z" fill="#1400DC"/>
</svg>
