<?xml version="1.0" encoding="utf-8"?><!DOCTYPE svg PUBLIC "-//W3C//DTD SVG 1.1//EN" "http://www.w3.org/Graphics/SVG/1.1/DTD/svg11.dtd"><svg viewBox="0 0 120 120" xmlns="http://www.w3.org/2000/svg" xmlns:xlink="http://www.w3.org/1999/xlink"><style>:root>svg{display:none}:root>svg:target{display:block}</style><svg viewBox="0 0 120 120" xml:space="preserve" style="fill-rule:evenodd;clip-rule:evenodd;stroke-linecap:round;stroke-miterlimit:1" id="benefit_1" xmlns="http://www.w3.org/2000/svg"><path style="fill:none" d="M0 0h120v120H0z"/><path d="m44.369 41.451 17.409 4.916" style="fill:none;stroke:#6171ff;stroke-width:1.6px"><animate attributeName="stroke-opacity" dur="3.5s" values="1; 1; 1; 1; 0; 0; 0; 0; 0; 1; 1; 1; 1; 1;" begin="0" repeatCount="indefinite"/></path><path d="m77.764 50.88 5.935 1.676" style="fill:none;stroke:#6171ff;stroke-width:1.6px"><animate attributeName="stroke-opacity" dur="3.5s" values="1; 1; 1; 1; 0; 0; 0; 0; 0; 1; 1; 1; 1; 1;" begin="0" repeatCount="indefinite"/></path><path d="m91.793 49.949 17.731-22.373" style="fill:none;stroke:#6171ff;stroke-width:1.6px"><animate attributeName="stroke-opacity" dur="3.5s" values="1; 1; 1; 1; 1; 1; 0; 0; 0; 0; 0; 1; 1; 1;" begin="0" repeatCount="indefinite"/></path><circle cx="6.845" cy="74.548" r="4.915" stroke="#6171FF" style="fill:none;stroke-width:1.6px"><animate attributeName="stroke-opacity" dur="3.5s" values="1; 0; 0; 0; 0; 0; 1; 1; 1; 1; 1; 1; 1; 1;" begin="0" repeatCount="indefinite"/></circle><circle cx="39.454" cy="41.451" r="4.915" style="fill:#6171ff;stroke:#6171ff;stroke-width:1.6px"><animate attributeName="stroke-opacity" dur="3.5s" values="1; 1; 1; 0; 0; 0; 0; 0; 1; 1; 1; 1; 1; 1;" begin="0" repeatCount="indefinite"/><animate attributeName="fill-opacity" dur="3.5s" values="1; 1; 1; 0; 0; 0; 0; 0; 1; 1; 1; 1; 1; 1;" begin="0" repeatCount="indefinite"/></circle><circle cx="88.614" cy="53.952" r="4.915" style="fill:none;stroke:#6171ff;stroke-width:1.6px"><animate attributeName="stroke-opacity" dur="3.5s" values="1; 1; 1; 1; 1; 0; 0; 0; 0; 0; 1; 1; 1; 1;" begin="0" repeatCount="indefinite"/></circle><circle cx="112.683" cy="23.815" r="4.915" style="fill:none;stroke:#6171ff;stroke-width:1.6px"><animate attributeName="stroke-opacity" dur="3.5s" values="1; 1; 1; 1; 1; 1; 1; 0; 0; 0; 0; 0; 1; 1;" begin="0" repeatCount="indefinite"/></circle><circle cx="77.63" cy="16.474" r="2.652" style="fill:none;stroke:#6171ff;stroke-width:1.6px;transform-box:fill-box;transform-origin:50% 50%"><animateTransform xmlns="http://www.w3.org/2000/svg" attributeType="xml" attributeName="transform" type="scale" dur="3s" values="1; 2; 1;" begin="0" repeatCount="indefinite"/></circle><path d="m61.755 71.002 28.168 28.167a2.645 2.645 0 0 0 3.739 0l3.74-3.739a2.646 2.646 0 0 0 0-3.74L69.327 63.615a30.782 30.782 0 0 0 5.869-18.123c0-17.073-13.861-30.934-30.935-30.934-4.558 0-8.888.988-12.786 2.761-10.701 4.87-18.148 15.659-18.148 28.173 0 17.074 13.861 30.935 30.934 30.935a30.774 30.774 0 0 0 17.494-5.425ZM44.261 24.147c-11.78 0-21.345 9.565-21.345 21.345 0 11.781 9.565 21.345 21.345 21.345 11.781 0 21.345-9.564 21.345-21.345 0-11.78-9.564-21.345-21.345-21.345Z" style="fill:#dedffe;stroke:#6171ff;stroke-width:1.6px;transform-box:fill-box;transform-origin:70% 50%"><animateTransform xmlns="http://www.w3.org/2000/svg" attributeType="xml" attributeName="transform" type="scale" dur="3s" values="1; 0.95; 1" begin="0" repeatCount="indefinite"/></path><path d="M55.294 85.188a.5.5 0 0 1 .457-.306.5.5 0 0 1 .458.306l1.499 3.503a.75.75 0 0 0 .382.392l3.419 1.535a.51.51 0 0 1 .299.468.513.513 0 0 1-.299.469L58.09 93.09a.748.748 0 0 0-.382.392l-1.499 3.503a.5.5 0 0 1-.458.306.5.5 0 0 1-.457-.306l-1.499-3.503a.766.766 0 0 0-.382-.392l-3.42-1.535a.515.515 0 0 1-.299-.469c0-.203.118-.387.299-.468l3.42-1.535a.776.776 0 0 0 .227-.159.79.79 0 0 0 .155-.233l1.499-3.503Z" style="fill:none;stroke:#6171ff;stroke-width:1.6px;stroke-linejoin:round;stroke-miterlimit:1.5;transform-box:fill-box;transform-origin:50% 50%"><animateTransform xmlns="http://www.w3.org/2000/svg" attributeType="xml" attributeName="transform" type="rotate" dur="3s" values="0; 90; 90; 180; 180; 270; 270; 360; 360;" begin="0" repeatCount="indefinite"/></path><path d="m10.495 71.319 24.67-27.41" style="fill:none;stroke:#6171ff;stroke-width:1.6px"><animate attributeName="stroke-opacity" dur="3.5s" values="1; 1; 0; 0; 0; 0; 0; 1; 1; 1; 1; 1; 1; 1;" begin="0" repeatCount="indefinite"/></path></svg><svg viewBox="0 0 120 120" xml:space="preserve" style="fill-rule:evenodd;clip-rule:evenodd;stroke-linecap:round;stroke-linejoin:round;stroke-miterlimit:1" id="benefit_2" xmlns="http://www.w3.org/2000/svg"><path style="fill:none" d="M0 0h120v120H0z"/><path style="fill:none" d="M0 0h120v120H0z"/><path d="M18.835 46.096c0-5.122 4.159-9.281 9.281-9.281H65.15c5.123 0 9.281 4.159 9.281 9.281v32.537c0 5.123-4.158 9.281-9.281 9.281H50.33a.512.512 0 0 0-.274.08L34.16 98.17a.148.148 0 0 1-.148.005.144.144 0 0 1-.074-.127l.036-9.918a.215.215 0 0 0-.215-.216h-5.643c-5.122 0-9.281-4.158-9.281-9.281V46.096Z" style="fill:#eeefff;stroke:#6171ff;stroke-width:1.6px;transform-box:fill-box;transform-origin:50% 50%"><animateTransform xmlns="http://www.w3.org/2000/svg" attributeType="xml" attributeName="transform" type="translate" dur="4s" values="0 3; 0 -3; 0 3" begin="0" repeatCount="indefinite"/></path><path d="M9.638 82.877a.443.443 0 0 1 .405-.271.44.44 0 0 1 .405.271l1.326 3.1a.65.65 0 0 0 .339.346l3.026 1.359a.453.453 0 0 1 .265.415c0 .18-.104.342-.265.415l-3.026 1.358a.67.67 0 0 0-.339.347l-1.326 3.1a.44.44 0 0 1-.405.271.443.443 0 0 1-.405-.271l-1.326-3.1a.671.671 0 0 0-.339-.347l-3.026-1.358a.453.453 0 0 1-.264-.415c0-.18.103-.343.264-.415l3.026-1.359a.638.638 0 0 0 .201-.14.696.696 0 0 0 .138-.206l1.326-3.1Z" style="fill:none;stroke:#6171ff;stroke-width:1.6px;stroke-miterlimit:1.5;transform-box:fill-box;transform-origin:50% 50%"><animateTransform xmlns="http://www.w3.org/2000/svg" attributeType="xml" attributeName="transform" type="rotate" dur="3s" values="0; 90; 90; 180; 180; 270; 270; 360; 360;" begin="0" repeatCount="indefinite"/></path><path d="M101.113 37.232c0-5.122-4.158-9.281-9.281-9.281H40.757c-5.122 0-9.281 4.159-9.281 9.281v32.537c0 5.123 4.159 9.281 9.281 9.281h29.669c.097 0 .191.028.273.08l15.897 10.176c.044.028.101.03.147.005a.147.147 0 0 0 .075-.127l-.037-9.918a.216.216 0 0 1 .215-.216h4.836c5.123 0 9.281-4.158 9.281-9.281V37.232Z" style="fill:#dedffe;stroke:#6171ff;stroke-width:1.6px;transform-box:fill-box;transform-origin:50% 50%"><animateTransform xmlns="http://www.w3.org/2000/svg" attributeType="xml" attributeName="transform" type="translate" dur="3s" values="0 -3; 0 3; 0 -3" begin="0" repeatCount="indefinite"/></path><circle cx="50.215" cy="53.775" r="4.445" style="fill:#eeefff;stroke:#6171ff;stroke-width:1.6px;stroke-linejoin:miter;transform-box:fill-box;transform-origin:50% 50%"><animateTransform xmlns="http://www.w3.org/2000/svg" attributeType="xml" attributeName="transform" type="translate" dur="2s" values="0 3; 0 -3; 0 3" begin="0" repeatCount="indefinite"/></circle><circle cx="66.295" cy="53.775" r="4.445" style="fill:#eeefff;stroke:#6171ff;stroke-width:1.6px;stroke-linejoin:miter;transform-origin:50% 50%"><animateTransform xmlns="http://www.w3.org/2000/svg" attributeType="xml" attributeName="transform" type="translate" dur="2s" values="0 3; 0 -3; 0 3" begin="0.3s" repeatCount="indefinite"/></circle><circle cx="82.374" cy="53.775" r="4.445" style="fill:#eeefff;stroke:#6171ff;stroke-width:1.6px;stroke-linejoin:miter;transform-origin:50% 50%"><animateTransform xmlns="http://www.w3.org/2000/svg" attributeType="xml" attributeName="transform" type="translate" dur="2s" values="0 3; 0 -3; 0 3" begin="0.6s" repeatCount="indefinite"/></circle><g style="transform-box:fill-box;transform-origin:50% 50%"><animateTransform xmlns="http://www.w3.org/2000/svg" attributeType="xml" attributeName="transform" type="rotate" dur="10s" values="0; 0; -90; -90; -90; -90; -180; -180; -180; -180; -270; -270; -270; -270; -360; -360; -360; -360;" begin="0" repeatCount="indefinite"/><path d="M105.323 36.815h11.662M105.323 44.425h7.429" style="fill:none;stroke:#6171ff;stroke-width:1.6px;stroke-linejoin:miter"/></g></svg><svg viewBox="0 0 120 120" xml:space="preserve" style="fill-rule:evenodd;clip-rule:evenodd;stroke-linecap:round;stroke-linejoin:round;stroke-miterlimit:1" id="benefit_3" xmlns="http://www.w3.org/2000/svg"><path style="fill:none" d="M0 0h120v120H0z"/><circle cx="60" cy="80.677" r="36.134" style="fill:#dedffe;transform-box:fill-box;transform-origin:50% 50%"><animateTransform xmlns="http://www.w3.org/2000/svg" attributeType="xml" attributeName="transform" type="scale" dur="3s" values="1; 0.8; 1" begin="0" repeatCount="indefinite"/></circle><g style="transform-box:fill-box;transform-origin:50% 50%"><g style="transform-box:fill-box;transform-origin:50% 50%"><circle cx="100.55" cy="52.751" r="1.928" style="fill:none;stroke:#6171ff;stroke-width:1.6px"/><path d="m101.271 73.582-24.35 14.707-.001-.002c.006.209-.021.377-.085.5-3.437 6.587-8.751 12.812-16.785 12.622-3.437 3.276-14.819-4.019-19.199-9.26-1.879-2.249-2.242-4.405-1.749-6.215a30.34 30.34 0 0 1-.2-.474c-1.886-4.582-20.173-12.154-20.173-12.154l7.575-19.133 28.379 5.834.118.106c2.142-3.66 5.872-5.745 13.696-5.687 5.193.038 7.841 1.613 14.611 1.368 2.645-.095 5.494-1.155 7.33-1.976l1.962-.969 8.871 20.733Z" style="fill:#eeefff"/><path d="m26.842 53.74 28.378 5.834M65.148 68.445c5.013 4.588 13.239 17.964 12.225 19.908-3.53 6.765-9.039 13.147-17.44 12.593-12.036-.794-17.918-9.664-20.493-15.919-1.886-4.583-20.174-12.155-20.174-12.155" style="fill:none;stroke:#6171ff;stroke-width:1.6px"/><path d="M92.938 52.416s-4.925 2.787-9.292 2.945c-6.77.244-9.419-1.331-14.612-1.369-15.761-.115-14.907 8.463-17.934 21.104 3.129 2.791 9.051.991 14.1-6.643M77.458 87.855s14.563-9.034 24.351-14.707" style="fill:none;stroke:#6171ff;stroke-width:1.6px"/><path d="M60.887 100.635s4.759-3.862-.015-8.819c-4.774-4.958-10.654-13.099-16.714-10.965-3.585 1.262-6.976 5.83-2.769 10.864 4.517 5.405 16.483 12.996 19.498 8.92" style="fill:#eeefff;stroke:#6171ff;stroke-width:1.6px"/><path d="m7.042 73.148 6.816 2.98a2.981 2.981 0 0 0 3.924-1.537l9.79-22.396a2.98 2.98 0 0 0-1.536-3.923l-15.047-5.63M113.85 73.148l-6.817 2.98a2.98 2.98 0 0 1-3.923-1.537l-9.791-22.396a2.98 2.98 0 0 1 1.536-3.923l12.88-5.63" style="fill:none;stroke:#6171ff;stroke-width:1.6px"/><animateTransform xmlns="http://www.w3.org/2000/svg" attributeType="xml" attributeName="transform" type="skewY" dur="3s" begin="0" values="0; 3; -3; 0;" repeatCount="indefinite"/></g><animateTransform xmlns="http://www.w3.org/2000/svg" attributeType="xml" attributeName="transform" type="translate" dur="3s" values="0 0; 0 -3; 0 3; 0 0" begin="0" repeatCount="indefinite"/></g><path d="M34.512 32.065a.398.398 0 0 1 .589-.435l2.631 1.541a.615.615 0 0 0 .433.07l2.93-.639a.41.41 0 0 1 .416.16.41.41 0 0 1 .03.443l-1.47 2.615a.597.597 0 0 0-.059.434l.701 2.967a.399.399 0 0 1-.148.415.402.402 0 0 1-.44.021l-2.631-1.541a.615.615 0 0 0-.433-.07l-2.931.639a.412.412 0 0 1-.415-.16.408.408 0 0 1-.03-.444l1.469-2.614a.586.586 0 0 0 .06-.435l-.702-2.967Z" style="fill:none;stroke:#6171ff;stroke-width:1.6px;stroke-miterlimit:1.5"><animate attributeName="stroke-opacity" dur="4.5s" values="1; 1; 1; 1; 0; 0; 0; 0; 0; 1; 1; 1; 1; 1;" begin="0" repeatCount="indefinite"/></path><path d="M85.6 24.902a.352.352 0 0 1 .374-.106.354.354 0 0 1 .24.306l.239 2.68a.518.518 0 0 0 .171.347l1.959 1.78a.363.363 0 0 1-.206.629l-2.632.282a.52.52 0 0 0-.342.179l-1.774 2.023a.352.352 0 0 1-.374.105.352.352 0 0 1-.24-.305l-.239-2.68a.515.515 0 0 0-.171-.347l-1.959-1.78a.361.361 0 0 1-.098-.38.36.36 0 0 1 .303-.249l2.632-.282a.525.525 0 0 0 .343-.179l1.774-2.023Z" style="fill:none;stroke:#6171ff;stroke-width:1.6px;stroke-miterlimit:1.5"><animate attributeName="stroke-opacity" dur="8.5s" values="1; 1; 1; 1; 0; 0; 0; 0; 0; 1; 1; 1; 1; 1;" begin="0" repeatCount="indefinite"/></path><circle cx="52.951" cy="18.651" r="2.899" style="fill:none;stroke:#6171ff;stroke-width:1.6px"><animate attributeName="stroke-opacity" dur="5.5s" values="1; 1; 1; 1; 0; 0; 0; 0; 0; 1; 1; 1; 1; 1;" begin="0" repeatCount="indefinite"/></circle><circle cx="65.884" cy="39.713" r="1.928" style="fill:none;stroke:#6171ff;stroke-width:1.6px"><animate attributeName="stroke-opacity" dur="7.5s" values="1; 1; 1; 1; 0; 0; 0; 0; 0; 1; 1; 1; 1; 1;" begin="0" repeatCount="indefinite"/></circle></svg><svg viewBox="0 0 120 120" xml:space="preserve" style="fill-rule:evenodd;clip-rule:evenodd;stroke-linecap:round;stroke-linejoin:round;stroke-miterlimit:1" id="benefit_4" xmlns="http://www.w3.org/2000/svg"><path style="fill:none" d="M0 0h120v120H0z"/><path style="fill:none" d="M0 0h120v120H0z"/><path d="M111.184 25.637a4.535 4.535 0 0 0-4.532-4.533H12.475a4.534 4.534 0 0 0-4.532 4.533v50.31a4.534 4.534 0 0 0 4.532 4.532h94.177a4.535 4.535 0 0 0 4.532-4.532v-50.31Z" style="fill:#dedffe;stroke:#6171ff;stroke-width:1.6px"/><path d="M5.723 87.074a.637.637 0 0 1 .389-.583.637.637 0 0 1 .687.138l3.468 3.388a.967.967 0 0 0 .64.275l4.768.14a.65.65 0 0 1 .58.405.652.652 0 0 1-.123.696l-3.273 3.471a.948.948 0 0 0-.259.647l-.057 4.848a.636.636 0 0 1-.388.583.636.636 0 0 1-.687-.138L8 97.556a.967.967 0 0 0-.641-.274l-4.768-.141a.649.649 0 0 1-.579-.405.65.65 0 0 1 .123-.696l3.273-3.471a.97.97 0 0 0 .259-.647l.056-4.848Z" style="fill:none;stroke:#6171ff;stroke-width:1.6px;stroke-miterlimit:1.5;transform-box:fill-box;transform-origin:50% 50%"><animateTransform attributeType="xml" attributeName="transform" type="rotate" begin="0s" dur="1s" values="0; 360;" repeatCount="indefinite"/></path><g style="transform-box:fill-box;transform-origin:80% 20%"><animateTransform attributeType="xml" attributeName="transform" type="rotate" begin="0s" dur="4s" values="0; 20; 20; 20; 0;" repeatCount="indefinite"/><path d="M80.378 75.463c.113-.07.339-.175.327-.211a18.541 18.541 0 0 1-.947-5.867c0-10.262 8.332-18.593 18.593-18.593 10.262 0 18.593 8.331 18.593 18.593 0 10.261-8.331 18.593-18.593 18.593a18.529 18.529 0 0 1-12.639-4.962c-.065-.06-.343.146-.506.247l-14.615 9.269 3.678 5.97a.937.937 0 0 1-.306 1.29l-8.278 4.877a.938.938 0 0 1-1.29-.306l-7.955-12.91a.936.936 0 0 1-.106-.244l-.017-.028a.7.7 0 0 1 .226-.964l23.835-14.754Z" style="fill:#eeefff;stroke:#6171ff;stroke-width:1.6px"/><circle cx="104.125" cy="65.042" r="5.564" style="fill:#eeefff;stroke:#6171ff;stroke-width:1.6px"/></g><circle cx="114.153" cy="12.764" r="2.893" style="fill:#eeefff;stroke:#6171ff;stroke-width:1.6px;transform-box:fill-box;transform-origin:50% 50%"><animate attributeName="r" begin="0s" dur="2s" values="2.893; 5.893; 2.893;" repeatCount="indefinite"/></circle><path d="M62.291 35.152h37.78" style="fill:none;stroke:#6171ff;stroke-width:1.55px"><animateTransform attributeType="xml" attributeName="transform" type="translate" begin="0s" dur="1s" values="0 0; 2 0; 0 0;" repeatCount="indefinite"/></path><path d="M62.291 43.24h25.987" style="fill:none;stroke:#6171ff;stroke-width:1.57px"><animateTransform attributeType="xml" attributeName="transform" type="translate" begin="0.33s" dur="1s" values="0 0; 2 0; 0 0;" repeatCount="indefinite"/></path><path d="M62.291 52.422h13.271" style="fill:none;stroke:#6171ff;stroke-width:1.59px"><animateTransform attributeType="xml" attributeName="transform" type="translate" begin="0.66s" dur="1s" values="0 0; 2 0; 0 0;" repeatCount="indefinite"/></path><g style="transform-box:fill-box;transform-origin:50% 50%"><animateTransform attributeType="xml" attributeName="transform" type="scale" begin="0s" dur="5s" values="1; 0.8; 1;" repeatCount="indefinite"/><circle cx="33.603" cy="50.792" r="17.164" style="fill:#eeefff;stroke:#6171ff;stroke-width:1.6px"/><path d="M23.281 64.293c0-6.17 4.625-11.179 10.322-11.179 5.698 0 10.323 5.009 10.323 11.179-8.003 5.56-16.189 3.852-20.645 0Zm10.322-23.004a5.915 5.915 0 0 1 5.913 5.912 5.915 5.915 0 0 1-5.913 5.913 5.915 5.915 0 0 1-5.912-5.913 5.915 5.915 0 0 1 5.912-5.912Z" style="fill:#eeefff;stroke:#6171ff;stroke-width:1.64px"/></g></svg><svg viewBox="0 0 120 120" fill="none" id="benefit_5" xmlns="http://www.w3.org/2000/svg"><mask id="ea" style="mask-type:alpha" maskUnits="userSpaceOnUse" x="26" y="16" width="78" height="83"><path fill="#C4C4C4" d="M26 16h78v83H26z"/></mask><g mask="url(#ea)" fill-rule="evenodd" clip-rule="evenodd" stroke="#6171FF" stroke-width="1.64" stroke-miterlimit="1" stroke-linecap="round" stroke-linejoin="round"><path d="M33.887 31.5c0-.924-.75-1.675-1.674-1.675h-3.349c-.924 0-1.674.751-1.674 1.675v66.676h6.697V31.5Z" fill="#EEEFFF"><animateTransform attributeType="xml" attributeName="transform" type="translate" begin="0s" dur="10s" values="0 0; 0 5; 0 0; 0 8; 0 0; 0 10; 0 0;" repeatCount="indefinite"/></path><path d="M47.759 23.463c0-.925-.75-1.675-1.674-1.675h-3.349c-.924 0-1.674.75-1.674 1.675v74.713h6.697V23.463Z" fill="#DEDFFE"><animateTransform attributeType="xml" attributeName="transform" type="translate" begin="0s" dur="6s" values="0 0; 0 10; 0 0; 0 3; 0 0; 0 5; 0 0;" repeatCount="indefinite"/></path><path d="M61.631 31.5c0-.924-.75-1.675-1.674-1.675h-3.349c-.924 0-1.674.751-1.674 1.675v66.676h6.697V31.5Z" fill="#EEEFFF"><animateTransform attributeType="xml" attributeName="transform" type="translate" begin="0s" dur="12s" values="0 0; 0 7; 0 0; 0 4; 0 0; 0 8; 0 0;" repeatCount="indefinite"/></path><path d="M75.503 26.856c0-.924-.75-1.674-1.674-1.674H70.48c-.924 0-1.674.75-1.674 1.674v71.32h6.697v-71.32Z" fill="#DEDFFE"><animateTransform attributeType="xml" attributeName="transform" type="translate" begin="0s" dur="7s" values="0 0; 0 20; 0 2; 0 7; 0 0; 0 6; 0 0;" repeatCount="indefinite"/></path><path d="M89.375 38.286c0-.924-.75-1.674-1.674-1.674h-3.349c-.924 0-1.674.75-1.674 1.674v59.89h6.697v-59.89Z" fill="#EEEFFF"><animateTransform attributeType="xml" attributeName="transform" type="translate" begin="0s" dur="7s" values="0 0; 0 30; 0 2; 0 15; 0 10; 0 6; 0 0;" repeatCount="indefinite"/></path><path d="M103.247 46.537c0-.924-.75-1.674-1.674-1.674h-3.349c-.924 0-1.674.75-1.674 1.674v51.639h6.697V46.537Z" fill="#DEDFFE"><animateTransform attributeType="xml" attributeName="transform" type="translate" begin="0s" dur="17s" values="0 0; 0 30; 0 2; 0 15; 0 10; 0 6; 0 0;" repeatCount="indefinite"/></path></g><path d="M19.908 15.566v82.61l83.339-.076" stroke="#6171FF" stroke-width="1.64" stroke-miterlimit="1" stroke-linecap="round" stroke-linejoin="round"/><path d="M43.742 109.909c18.874 0 34.175-15.3 34.175-34.175 0-18.874-15.3-34.175-34.175-34.175-18.874 0-34.175 15.3-34.175 34.175 0 18.874 15.3 34.175 34.175 34.175Z" fill="#DEDFFE" stroke="#6171FF" stroke-width="1.64" stroke-miterlimit="1" stroke-linecap="round" stroke-linejoin="round"/><path fill-rule="evenodd" clip-rule="evenodd" d="M43.742 41.559c18.862 0 34.176 15.313 34.176 34.175 0 18.862-15.314 34.176-34.176 34.176-18.862 0-34.175-15.314-34.175-34.176 0-18.862 15.313-34.175 34.175-34.175Zm0 7.519c14.713 0 26.657 11.944 26.657 26.656 0 14.713-11.944 26.657-26.657 26.657-14.712 0-26.656-11.944-26.656-26.657 0-14.712 11.944-26.656 26.656-26.656Z" fill="#EEEFFF" stroke="#6171FF" stroke-width="1.64" stroke-miterlimit="1" stroke-linecap="round" stroke-linejoin="round"/><path d="M53.176 81.086c0 1.245-.221 2.367-.662 3.365a7.49 7.49 0 0 1-1.878 2.584c-.811.724-1.788 1.303-2.931 1.737-1.144.434-2.41.709-3.8.825l-.456 4.646a.794.794 0 0 1-.097.304.566.566 0 0 1-.283.217 2.418 2.418 0 0 1-.564.141 6.2 6.2 0 0 1-.901.055 7.56 7.56 0 0 1-1.118-.066 2.307 2.307 0 0 1-.662-.184c-.16-.08-.265-.185-.315-.315a.785.785 0 0 1-.033-.434l.456-4.407a16.783 16.783 0 0 1-1.758-.337c-.55-.138-1.05-.289-1.498-.456a9.428 9.428 0 0 1-1.162-.51c-.326-.174-.572-.344-.738-.51-.167-.167-.286-.413-.358-.739-.073-.325-.109-.806-.109-1.443 0-.492.014-.898.043-1.216.029-.319.08-.565.152-.738.073-.174.163-.293.272-.359a.723.723 0 0 1 .38-.097c.188 0 .463.108.825.325.362.218.825.456 1.389.717.565.26 1.249.499 2.052.716.803.217 1.748.326 2.833.326 1.694 0 2.953-.315 3.778-.944.825-.63 1.237-1.466 1.237-2.508 0-.695-.177-1.267-.531-1.715-.355-.449-.829-.843-1.423-1.183a12.417 12.417 0 0 0-2.008-.912 94.546 94.546 0 0 1-2.29-.858 19.773 19.773 0 0 1-2.291-1.064 8.677 8.677 0 0 1-2.008-1.498 6.614 6.614 0 0 1-1.422-2.16c-.355-.847-.532-1.871-.532-3.072 0-1.086.181-2.074.543-2.964a6.837 6.837 0 0 1 1.563-2.334c.68-.665 1.516-1.205 2.508-1.617.991-.413 2.116-.691 3.376-.836l.434-4.364a.69.69 0 0 1 .098-.293c.05-.08.144-.152.282-.217.137-.065.322-.112.553-.141a7.64 7.64 0 0 1 .912-.044c.449 0 .822.022 1.118.065.297.044.525.105.684.185.159.08.261.185.304.315.044.13.065.275.065.434l-.434 4.103c.405.058.832.138 1.281.239.449.102.869.221 1.259.358.391.138.746.283 1.064.435.319.152.539.289.662.412s.217.246.283.369c.065.123.115.275.152.456.036.181.061.398.076.652.014.253.021.546.021.879 0 .449-.011.818-.032 1.107-.022.29-.062.51-.12.662-.058.152-.123.254-.195.304a.44.44 0 0 1-.261.076c-.188 0-.463-.094-.825-.282a16.804 16.804 0 0 0-1.335-.608 15.742 15.742 0 0 0-1.824-.608 8.578 8.578 0 0 0-2.268-.282c-.753 0-1.397.072-1.933.217-.535.145-.969.347-1.302.608-.333.26-.579.572-.739.934a2.93 2.93 0 0 0-.238 1.194c0 .68.181 1.252.542 1.715.362.463.844.861 1.444 1.194.601.333 1.281.637 2.041.912s1.534.564 2.323.868c.789.304 1.563.655 2.323 1.053.76.398 1.437.89 2.03 1.477a6.706 6.706 0 0 1 1.433 2.127c.362.832.543 1.835.543 3.007Z" fill="#EEEFFF" stroke="#6171FF" stroke-width="1.64" stroke-miterlimit="2" stroke-linejoin="round" style="transform-box:fill-box;transform-origin:50% 50%"><animateTransform attributeType="xml" attributeName="transform" type="rotate" begin="0s" dur="15s" values="0; -360;" repeatCount="indefinite"/></path><path fill-rule="evenodd" clip-rule="evenodd" d="M99.25 18.491a.57.57 0 0 1 .584-.231.57.57 0 0 1 .436.452l.828 4.269a.865.865 0 0 0 .332.529l3.445 2.537a.584.584 0 0 1 .22.595.584.584 0 0 1-.446.45l-4.185.889a.862.862 0 0 0-.521.345l-2.516 3.546a.57.57 0 0 1-.584.231.568.568 0 0 1-.437-.451l-.828-4.269a.85.85 0 0 0-.332-.53l-3.445-2.537a.583.583 0 0 1-.22-.594.584.584 0 0 1 .446-.451l4.185-.889a.844.844 0 0 0 .521-.345l2.517-3.546Z" fill="#EEEFFF" stroke="#6171FF" stroke-width="1.64" stroke-miterlimit="1.5" stroke-linecap="round" stroke-linejoin="round" style="transform-box:fill-box;transform-origin:50% 50%"><animateTransform attributeType="xml" attributeName="transform" type="rotate" begin="0s" dur="10s" values="0; 360;" repeatCount="indefinite"/></path></svg><svg viewBox="0 0 120 120" xml:space="preserve" style="fill-rule:evenodd;clip-rule:evenodd;stroke-linecap:round;stroke-linejoin:round;stroke-miterlimit:1" id="benefit_6" xmlns="http://www.w3.org/2000/svg"><path style="fill:none" d="M0 0h120v120H0z"/><path style="fill:none" d="M0 0h120v120H0z"/><circle cx="60" cy="84.667" r="11.369" style="fill:none;stroke:#6171ff;stroke-width:1.6px"/><circle cx="26.959" cy="71.096" r="11.369" style="fill:none;stroke:#6171ff;stroke-width:1.6px"/><circle cx="20.556" cy="35.744" r="2.185" style="fill:none;stroke:#6171ff;stroke-width:1.6px;transform-box:fill-box;transform-origin:50% 50%"><animate attributeName="r" begin="0s" dur="7s" values="2.185; 6.893; 2.185" repeatCount="indefinite"/></circle><circle cx="80.071" cy="6.218" r="3.228" style="fill:none;stroke:#6171ff;stroke-width:1.6px;transform-box:fill-box;transform-origin:50% 50%"><animate attributeName="r" begin="0s" dur="5s" values="1.228; 4.893; 1.228;" repeatCount="indefinite"/></circle><circle cx="93.041" cy="71.096" r="11.369" style="fill:none;stroke:#6171ff;stroke-width:1.6px"/><path d="M39.929 116.106c0-11.077 8.994-20.071 20.071-20.071 11.077 0 20.071 8.994 20.071 20.071M6.888 110.112v-7.576c0-11.078 8.993-20.071 20.071-20.071 8.802 0 16.289 5.679 18.993 13.57M113.112 110.112v-7.576c0-11.078-8.993-20.071-20.071-20.071-8.802 0-16.289 5.679-18.993 13.57" style="fill:none;stroke:#6171ff;stroke-width:1.6px"/><path d="m37.747 45.704-4.39 1.285" style="fill:none;stroke:#6171ff;stroke-width:1.6px"><animate attributeName="stroke-opacity" values="1; 0; 1" dur="2s" begin="0" repeatCount="indefinite"/></path><path d="m82.253 45.704 4.39 1.285" style="fill:none;stroke:#6171ff;stroke-width:1.6px"><animate attributeName="stroke-opacity" values="1; 0; 1" dur="2s" begin="0" repeatCount="indefinite"/></path><path d="m37.304 18.782-3.947-1.813" style="fill:none;stroke:#6171ff;stroke-width:1.6px"><animate attributeName="stroke-opacity" values="1; 0; 1" dur="2s" begin="0" repeatCount="indefinite"/></path><path d="m82.696 18.782 3.947-1.813" style="fill:none;stroke:#6171ff;stroke-width:1.6px"><animate attributeName="stroke-opacity" values="1; 0; 1" dur="2s" begin="0" repeatCount="indefinite"/></path><path d="M60.154 8.542V3.894" style="fill:none;stroke:#6171ff;stroke-width:1.6px"><animate attributeName="stroke-opacity" values="1; 0; 1" dur="2s" begin="0" repeatCount="indefinite"/></path><g style="transform-box:fill-box;transform-origin:50% 50%"><animateTransform attributeType="xml" attributeName="transform" type="scale" begin="0s" dur="2s" values="1; 0.8; 1;" repeatCount="indefinite"/><path d="M57.001 64.163h6.305" style="fill:none;stroke:#6171ff;stroke-width:1.6px"><animateTransform attributeType="xml" attributeName="transform" type="translate" begin="0s" dur="2s" values="0 2; 0 0; 0 2;" repeatCount="indefinite"/></path><path d="M57.001 66.662h6.305" style="fill:none;stroke:#6171ff;stroke-width:1.6px"><animateTransform attributeType="xml" attributeName="transform" type="translate" begin="0s" dur="2s" values="0 3; 0 0; 0 3;" repeatCount="indefinite"/></path><path d="M60 16.969c9.423 0 17.073 7.65 17.073 17.073 0 8.531-13.068 18.068-13.597 24.081-.021.238-.096 3.529-.096 3.529l-6.566.019s-.209-3.112-.272-3.576c-.811-5.991-13.615-15.609-13.615-24.053 0-9.423 7.65-17.073 17.073-17.073Z" style="fill:#dedffe;stroke:#6171ff;stroke-width:1.6px"/><path d="M59.377 25.252a.845.845 0 0 1 1.554 0l2.044 4.757 5.156.474a.846.846 0 0 1 .48 1.478l-3.893 3.414 1.143 5.05a.844.844 0 0 1-1.257.914l-4.45-2.648-4.45 2.648a.848.848 0 0 1-1.257-.914l1.143-5.05-3.894-3.414a.845.845 0 0 1 .481-1.478l5.156-.474 2.044-4.757Z" style="fill:#eeefff;stroke:#6171ff;stroke-width:1.6px"/></g></svg></svg>