<svg width="50" height="50" viewBox="0 0 50 50" fill="none" xmlns="http://www.w3.org/2000/svg">
<path d="M50 0H0V50H50V0Z" fill="#28AFF0"/>
<path d="M39.1668 25.3333C39.1112 24.7222 39.0001 24.2778 38.9445 24.1111V24.0556C37.8334 18.9445 34.3334 16.2222 28.889 16.2222V18.1111C33.4446 18.1111 36.1668 20.1667 37.0557 24.4445V24.5C37.1112 24.6667 37.1668 25 37.2223 25.5C37.889 31.2778 33.1112 34.2778 32.9446 34.4445L32.5001 34.7222V38.5556H29.1112V36.5556H23.2779V38.5556H19.6112V33.9445L18.7779 33.8889C18.7779 33.8889 17.7223 33.7222 17.0557 33C16.2223 32.0556 16.1112 31.2778 16.1112 31.2222L16.0557 30.3333H14.0557L14.0001 23H15.8334L16.0001 22.2778C16.0001 22.2778 16.2223 21.3333 17.0557 20.3889C17.6668 19.6667 18.6668 19.3333 18.7223 19.3333L19.389 19.1111V15.6667C20.7223 15.5 22.889 15.5 24.1668 16.5556C24.9446 17.1667 25.2779 18.1111 25.2779 19.3889H27.1668C27.1668 17.5 26.5557 16.0556 25.3334 15.0556C22.7223 12.9445 18.3334 13.8889 18.1668 13.9445L17.389 14.1111V17.7778C16.8334 18 16.1112 18.4445 15.5557 19.1111C14.9446 19.8333 14.5557 20.5556 14.3334 21.1111H12.0557L12.1668 32.2778H14.4446C14.6112 32.8333 15.0001 33.5556 15.6668 34.2778C16.3334 35 17.1112 35.3889 17.7223 35.5556V40.4445H25.2223V38.4445H27.2223V40.4445H34.4446V35.7222C35.8334 34.7222 39.889 31.2778 39.1668 25.3333Z" fill="white"/>
<path d="M28.9446 14.2223C31.0002 14.2223 32.6669 12.5556 32.6669 10.5001C32.6669 8.4445 31.0002 6.77783 28.9446 6.77783C26.8891 6.77783 25.2224 8.4445 25.2224 10.5001C25.2224 12.5556 26.8891 14.2223 28.9446 14.2223ZM28.9446 8.72228C29.9446 8.72228 30.7224 9.55561 30.7224 10.5001C30.7224 11.5001 29.8891 12.2778 28.9446 12.2778C28.0002 12.2778 27.1669 11.4445 27.1669 10.5001C27.1669 9.55561 27.9446 8.72228 28.9446 8.72228Z" fill="white"/>
<path d="M23.3336 22L22.1669 23.1667L21.0002 22L19.6113 23.3333L20.8336 24.5L19.6113 25.6667L21.0002 27.0556L22.1669 25.8889L23.3336 27.0556L24.6669 25.6667L23.5002 24.5L24.6669 23.3333L23.3336 22Z" fill="white"/>
</svg>
