<svg viewBox="0 0 137 29" fill="#000000" xmlns="http://www.w3.org/2000/svg"><path d="M6.004 6.036h15.149v15.14H6.003V6.036ZM0 27.236h27.222V0H0v27.236Z"/><path d="M18.118 9.066H9.033v9.085h9.085V9.066ZM42.185 14.178c-1.401 0-2.335-.43-3.049-1.648v5.897h-2.843V3.02h2.843v1.624a3.267 3.267 0 0 1 3.049-1.811c2.866 0 4.593 2.423 4.593 5.672 0 3.333-1.951 5.672-4.593 5.672Zm-.65-8.963c-1.4 0-2.399 1.237-2.399 3.291s.976 3.291 2.4 3.291c1.423 0 2.4-1.256 2.4-3.268 0-2.096-.934-3.333-2.4-3.333M54.159 5.663c-1.668 0-2.502.833-2.502 2.498v5.835h-2.843V3.021h2.843v2.152c.611-1.485 1.75-2.334 3.048-2.334a2.16 2.16 0 0 1 .346.023v2.885a4.984 4.984 0 0 0-.892-.08M61.578 14.178c-3.375 0-5.43-2.054-5.43-5.672s2.054-5.672 5.406-5.672c3.436 0 5.449 2.035 5.449 5.756 0 3.515-2.092 5.602-5.425 5.602v-.014Zm0-9.033c-1.545 0-2.582 1.283-2.582 3.375 0 2.091 1.037 3.375 2.582 3.375s2.581-1.279 2.581-3.333c0-2.157-1.017-3.417-2.581-3.417ZM73.692 14.178c-3.268 0-5.135-1.97-5.135-5.602 0-3.735 1.91-5.756 5.182-5.756 2.745 0 4.533 1.606 4.738 4.29h-2.726c-.322-1.442-.873-1.993-2.031-1.993-1.788 0-2.334 1.447-2.334 3.46 0 2.133.873 3.29 2.334 3.29 1.097 0 1.667-.55 2.03-1.69h2.727c-.266 2.335-2.115 3.987-4.776 3.987M89.808 9.258H82.45c.08 2.133.934 2.745 2.274 2.745 1.036 0 1.932-.304 2.175-1.097H89.7c-.63 2.152-2.623 3.268-5.08 3.268-3.113 0-5.022-2.013-5.022-5.528 0-3.679 1.932-5.817 5.084-5.817 3.23 0 5.135 2.297 5.135 6.07l-.01.359Zm-5.164-4.249c-1.26 0-1.97.836-2.157 2.358h4.37c-.14-1.564-.994-2.358-2.213-2.358ZM96.232 14.178c-3.334 0-5.103-1.26-5.182-3.66h2.8c.244 1.181.935 1.424 2.237 1.424 1.303 0 2.115-.266 2.115-.934 0-.308-.243-.532-.934-.751l-3.394-1.06c-2.03-.63-2.4-1.363-2.4-2.703 0-2.255 1.733-3.66 4.515-3.66 2.946 0 4.734 1.4 4.776 3.735H98.02c0-.995-.691-1.485-2.05-1.485-.999 0-1.648.406-1.648 1.018 0 .467.206.63.995.854l3.6 1.036c1.442.425 2.151 1.364 2.151 2.624v.14c0 2.218-1.704 3.436-4.794 3.436M107.52 14.178c-3.333 0-5.103-1.26-5.182-3.66h2.801c.243 1.181.934 1.424 2.236 1.424 1.303 0 2.115-.266 2.115-.934 0-.308-.243-.532-.934-.751l-3.394-1.06c-2.031-.63-2.395-1.363-2.395-2.703 0-2.255 1.728-3.66 4.51-3.66 2.946 0 4.734 1.4 4.776 3.735h-2.745c0-.995-.691-1.485-2.05-1.485-.999 0-1.648.406-1.648 1.018 0 .467.206.63.995.854l3.599 1.036c1.443.425 2.152 1.364 2.152 2.624v.14c0 2.218-1.704 3.436-4.794 3.436M119.191 14.178c-3.375 0-5.424-2.054-5.424-5.672s2.049-5.672 5.406-5.672c3.431 0 5.443 2.035 5.443 5.756 0 3.515-2.091 5.602-5.425 5.602v-.014Zm0-9.033c-1.545 0-2.581 1.283-2.581 3.375 0 2.091 1.036 3.375 2.581 3.375 1.546 0 2.582-1.279 2.582-3.333 0-2.157-1.018-3.417-2.582-3.417ZM132.104 5.663c-1.668 0-2.502.832-2.502 2.498v5.835h-2.843V3.021h2.843v2.152c.611-1.485 1.751-2.334 3.053-2.334.116-.002.231.006.346.023v2.885a5.074 5.074 0 0 0-.897-.08M37.684 27.236h-1.4v-5.374h1.4v5.374Zm0-6.013h-1.4v-1.4h1.4v1.4ZM43.562 25.644a1.447 1.447 0 0 1-.607 1.251 3.007 3.007 0 0 1-1.741.43c-1.65 0-2.493-.596-2.53-1.788h1.358a.784.784 0 0 0 .34.55c.235.112.494.162.753.145.69 0 1.036-.154 1.036-.467 0-.145-.159-.266-.467-.369l-1.662-.513a1.988 1.988 0 0 1-.934-.509 1.265 1.265 0 0 1-.233-.812 1.587 1.587 0 0 1 .593-1.308 2.47 2.47 0 0 1 1.615-.466 2.694 2.694 0 0 1 1.7.466 1.648 1.648 0 0 1 .634 1.336h-1.344c0-.467-.34-.724-1.004-.724a1.117 1.117 0 0 0-.583.13.41.41 0 0 0-.22.365.312.312 0 0 0 .098.252c.117.08.249.135.388.163l1.76.51a1.265 1.265 0 0 1 1.05 1.311v.047ZM49.57 24.594a2.74 2.74 0 0 1-.714 2.007 2.974 2.974 0 0 1-3.889 0 3.32 3.32 0 0 1 0-4.09 2.578 2.578 0 0 1 1.938-.732 2.6 2.6 0 0 1 1.97.733c.495.576.744 1.323.695 2.082Zm-1.4-.024a1.947 1.947 0 0 0-.346-1.223 1.177 1.177 0 0 0-1.839 0 2.306 2.306 0 0 0 0 2.414 1.172 1.172 0 0 0 1.835 0c.249-.345.372-.765.35-1.19ZM55.363 27.236h-1.4v-.705a1.915 1.915 0 0 1-1.61.794 1.766 1.766 0 0 1-1.327-.467 1.866 1.866 0 0 1-.467-1.373v-3.622h1.4v3.305c0 .644.295.966.893.966.3.014.593-.09.817-.29a1 1 0 0 0 .308-.765v-3.216h1.4l-.014 5.373ZM59.734 23.203a2.602 2.602 0 0 0-.434-.043 1.083 1.083 0 0 0-1.224 1.224v2.852h-1.4v-5.373h1.4v1.055a1.91 1.91 0 0 1 .617-.845c.25-.193.557-.298.873-.3h.168v1.43ZM65.111 25.378a2.086 2.086 0 0 1-.737 1.4 2.335 2.335 0 0 1-1.597.542 2.4 2.4 0 0 1-1.867-.705 2.862 2.862 0 0 1-.659-2.026 2.97 2.97 0 0 1 .663-2.087 2.395 2.395 0 0 1 1.868-.728 2.335 2.335 0 0 1 1.624.56 2.167 2.167 0 0 1 .691 1.536h-1.33a1.526 1.526 0 0 0-.346-.747.877.877 0 0 0-.649-.224c-.756 0-1.134.56-1.134 1.69-.026.418.078.834.299 1.19a.967.967 0 0 0 .835.42.933.933 0 0 0 .626-.2c.177-.171.305-.388.369-.626l1.344.005ZM70.667 24.752v.168h-3.6c-.017.374.091.742.309 1.046a1.06 1.06 0 0 0 .808.294c.593 0 .933-.177 1.06-.537h1.372a2.008 2.008 0 0 1-.892 1.19 2.96 2.96 0 0 1-1.592.412 2.335 2.335 0 0 1-1.802-.71 2.848 2.848 0 0 1-.653-1.993c-.047-.756.19-1.501.662-2.092a2.562 2.562 0 0 1 3.67.042c.477.623.714 1.397.668 2.18h-.01Zm-1.428-.756a1.353 1.353 0 0 0-.337-.859 1.003 1.003 0 0 0-.746-.294c-.607 0-.962.383-1.05 1.153h2.133Z"/></svg>
