<svg viewBox="0 0 137 29" fill="#000000" xmlns="http://www.w3.org/2000/svg"><path d="M8.977 9.075h8.939v8.972h-8.94V9.075Z"/><path fill-rule="evenodd" clip-rule="evenodd" d="M0 .083h26.874V27H0V.083Zm5.972 8.991h.019v8.972h-.019v2.991h14.93V6.083H5.972v2.991Z"/><path d="M35.12 20.925v5.593h1.433v-5.593H35.12ZM35.12 18.981v1.331h1.433v-1.33H35.12ZM42.321 22.61c-.197-1.29-1.297-1.83-2.46-1.83-1.204 0-2.284.665-2.284 1.663 0 1.02.696 1.456 1.744 1.674l.83.177c.489.114.914.27.914.686 0 .406-.384.634-1.007.634-.747 0-1.12-.405-1.204-.946h-1.38c.135 1.28 1.173 1.986 2.543 1.986 1.266 0 2.418-.686 2.418-1.809 0-1.154-.944-1.435-2.055-1.684l-.747-.167c-.53-.114-.748-.343-.748-.644 0-.343.374-.54.903-.54.665 0 1.08.332 1.194.8h1.34Z"/><path fill-rule="evenodd" clip-rule="evenodd" d="M48.614 23.732c0 1.955-1.39 2.922-2.802 2.922-1.412 0-2.803-.967-2.803-2.922 0-1.965 1.39-2.931 2.803-2.931 1.411 0 2.802.966 2.802 2.931Zm-1.453 0c0-1.174-.56-1.809-1.35-1.809-.788 0-1.349.635-1.349 1.81 0 1.174.56 1.798 1.35 1.798.788 0 1.349-.624 1.349-1.799Z"/><path d="M52.96 26.518h1.433v-5.593h-1.432v2.911c0 .884-.208 1.664-1.163 1.664-.8 0-.913-.603-.913-1.352v-3.223h-1.433v3.535c0 1.372.54 2.194 1.879 2.194.695 0 1.308-.302 1.63-.874v.738ZM58.724 20.942l.15.014v1.352c-.207-.031-.383-.031-.59-.031-.707 0-1.174.26-1.174 1.31v2.931h-1.432v-5.593h1.411v.977c.322-.696.82-.966 1.474-.966.048 0 .105.002.161.006ZM62.05 20.8c-1.67 0-2.802 1.227-2.802 2.932 0 1.695 1.07 2.922 2.74 2.922 1.163 0 2.315-.51 2.647-2.038h-1.37c-.197.666-.706.925-1.204.925-.789 0-1.35-.655-1.35-1.83 0-1.164.592-1.798 1.34-1.798.55 0 1.048.385 1.162.925h1.37c-.197-1.383-1.36-2.038-2.532-2.038Z"/><path fill-rule="evenodd" clip-rule="evenodd" d="M67.98 20.8c1.724 0 2.793 1.342 2.74 3.317H66.6c.083.956.726 1.424 1.412 1.424.446 0 .882-.156 1.172-.644h1.475c-.302.832-1.111 1.757-2.637 1.757-1.796 0-2.844-1.341-2.844-2.953 0-1.663 1.152-2.9 2.802-2.9Zm1.287 2.33c-.03-.947-.695-1.28-1.297-1.28-.54 0-1.235.333-1.35 1.28h2.647Z"/><path d="M34.528 13.542h8.706v-2.05H36.85V7.603h5.223v-2.05H36.85V2.05h6.384V0h-8.706v13.542ZM49.01 13.542h.89V11.57h-.483c-.89 0-1.335-.445-1.335-1.451V0h-2.244v10.35c0 2.05 1.141 3.192 3.173 3.192ZM55.9 13.716c2.71 0 4.064-1.354 4.45-3.173H58.03c-.194.639-.755 1.2-2.128 1.2-1.374 0-2.186-.677-2.302-2.283h6.848v-.755c0-3.192-1.741-5.01-4.546-5.01-2.767 0-4.547 1.78-4.547 4.7v.62c0 2.921 1.78 4.701 4.547 4.701Zm0-8.048c1.316 0 2.09.58 2.264 2.012h-4.527c.194-1.393.968-2.012 2.264-2.012ZM62.963 13.542h2.244V7.835c.039-1.219.89-2.05 2.031-2.05 1.123 0 1.858.734 1.858 2.147v5.61h2.244v-5.61c0-1.277.87-2.148 2.031-2.148 1.142 0 1.857.716 1.857 2.148v5.61h2.245v-5.61c0-2.806-1.432-4.237-3.618-4.237-1.354 0-2.477.56-3.154 1.567-.619-1.025-1.663-1.567-2.979-1.567-1.16 0-2.147.445-2.825 1.238l-.174-1.064h-1.76v9.673ZM84.437 13.716c2.709 0 4.063-1.354 4.45-3.173h-2.322c-.193.639-.754 1.2-2.128 1.2s-2.186-.677-2.302-2.283h6.849v-.755c0-3.192-1.742-5.01-4.547-5.01-2.766 0-4.546 1.78-4.546 4.7v.62c0 2.921 1.78 4.701 4.546 4.701Zm0-8.048c1.316 0 2.09.58 2.264 2.012h-4.527c.193-1.393.967-2.012 2.263-2.012ZM91.5 13.542h2.244V7.835c.039-1.219.91-2.05 2.302-2.05 1.18 0 1.916.734 1.916 2.147v5.61h2.244v-5.61c0-2.825-1.413-4.237-3.773-4.237-1.257 0-2.302.445-2.998 1.257L93.26 3.87H91.5v9.673ZM101.857 5.843h1.742v4.507c0 2.051 1.141 3.192 3.192 3.192h1.644V11.57h-1.238c-.909 0-1.354-.445-1.354-1.45V5.842h2.399V3.869h-2.399V1.161h-2.244v2.708h-1.742v1.974Z"/></svg>
