<svg viewBox="0 0 137 29" fill="#fff" xmlns="http://www.w3.org/2000/svg"><path d="M5.907 6.206h14.905v14.896H5.907V6.206ZM0 27.064h26.783V.267H0v26.797Z"/><path d="M17.826 9.188H8.888v8.938h8.938V9.187ZM41.457 6.46a5.655 5.655 0 0 0-.88-.08c-1.64 0-2.46.82-2.46 2.46v5.74h-2.8V3.78h2.8V5.9c.294-.734.707-1.3 1.24-1.7a2.868 2.868 0 0 1 2.1-.58v2.84ZM52.408 14.58h-3.04c-.213-.267-.32-.72-.32-1.36-.987 1.026-2.08 1.54-3.28 1.54-.947 0-1.733-.267-2.36-.8-.613-.534-.92-1.3-.92-2.3 0-.96.254-1.694.76-2.2.52-.507 1.327-.86 2.42-1.06l1.12-.2a41.857 41.857 0 0 1 1.2-.18c.12-.027.26-.067.42-.12.173-.054.293-.114.36-.18.067-.08.127-.18.18-.3.053-.134.08-.294.08-.48 0-.72-.54-1.08-1.62-1.08-.693 0-1.18.106-1.46.32-.28.213-.453.6-.52 1.16h-2.7c.173-2.494 1.713-3.74 4.62-3.74 2.947 0 4.42 1.107 4.42 3.32v6c0 .493.213.933.64 1.32v.34Zm-3.38-4.62v-.48c-.253.12-.647.233-1.18.34l-.96.18c-.6.106-1.02.26-1.26.46-.227.186-.34.48-.34.88 0 .773.507 1.16 1.52 1.16.707 0 1.253-.22 1.64-.66.387-.44.58-1.067.58-1.88ZM63.94 14.58h-2.8v-1.24c-.72.946-1.712 1.42-2.98 1.42-1.386 0-2.492-.527-3.319-1.58-.813-1.067-1.22-2.394-1.22-3.98 0-1.627.433-2.967 1.3-4.02.867-1.053 1.947-1.58 3.24-1.58 1.307 0 2.3.527 2.98 1.58V0h2.8v14.58Zm-2.8-5.34c0-1.027-.212-1.834-.64-2.42-.426-.587-1-.88-1.72-.88-.706 0-1.279.3-1.719.9-.427.586-.64 1.373-.64 2.36 0 .986.213 1.773.64 2.36.44.573 1.013.86 1.72.86.707 0 1.273-.287 1.7-.86.44-.574.66-1.347.66-2.32ZM75.747 14.58h-3.04c-.213-.267-.32-.72-.32-1.36-.987 1.026-2.08 1.54-3.28 1.54-.947 0-1.733-.267-2.36-.8-.613-.534-.92-1.3-.92-2.3 0-.96.254-1.694.76-2.2.52-.507 1.327-.86 2.42-1.06l1.12-.2a41.857 41.857 0 0 1 1.2-.18c.12-.027.26-.067.42-.12.173-.054.293-.114.36-.18.067-.08.127-.18.18-.3.053-.134.08-.294.08-.48 0-.72-.54-1.08-1.62-1.08-.693 0-1.18.106-1.46.32-.28.213-.453.6-.52 1.16h-2.7c.174-2.494 1.714-3.74 4.62-3.74 2.947 0 4.42 1.107 4.42 3.32v6c0 .493.213.933.64 1.32v.34Zm-3.38-4.62v-.48c-.253.12-.647.233-1.18.34l-.96.18c-.6.106-1.02.26-1.26.46-.227.186-.34.48-.34.88 0 .773.507 1.16 1.52 1.16.707 0 1.253-.22 1.64-.66.387-.44.58-1.067.58-1.88ZM83.78 6.46a5.655 5.655 0 0 0-.88-.08c-1.64 0-2.46.82-2.46 2.46v5.74h-2.8V3.78h2.8V5.9c.293-.734.707-1.3 1.24-1.7a2.868 2.868 0 0 1 2.1-.58v2.84ZM40.685 24.217c0 .797-.21 1.454-.628 1.97-.418.51-.947.764-1.587.764-.68 0-1.17-.264-1.47-.793V29h-1.372V21.57H37v.784c.327-.581.817-.872 1.47-.872.68 0 1.218.255 1.617.765.398.51.598 1.166.598 1.97Zm-1.372.02c0-.497-.105-.889-.314-1.176a.99.99 0 0 0-.843-.431c-.346 0-.627.143-.843.43-.209.282-.313.667-.313 1.157s.105.88.313 1.167c.216.28.497.42.843.42.34 0 .618-.14.833-.42.216-.288.324-.67.324-1.147ZM44.775 22.884a2.774 2.774 0 0 0-.432-.039c-.803 0-1.205.402-1.205 1.206v2.812h-1.372v-5.292h1.372v1.04c.144-.36.346-.638.608-.834a1.405 1.405 0 0 1 1.029-.284v1.392ZM50.632 24.256c0 .843-.235 1.503-.706 1.98-.464.477-1.1.715-1.91.715-.818 0-1.458-.238-1.922-.715-.464-.477-.696-1.15-.696-2.019 0-.862.232-1.532.696-2.009.464-.483 1.101-.725 1.911-.725.837 0 1.483.242 1.94.725.458.477.687 1.16.687 2.049Zm-1.372-.02c0-.515-.115-.917-.343-1.204a1.07 1.07 0 0 0-.902-.441c-.379 0-.683.146-.911.44-.222.288-.334.683-.334 1.186 0 .503.112.902.334 1.196.228.287.532.431.911.431.373 0 .673-.144.902-.431.228-.294.343-.686.343-1.176ZM56.26 25.03a2.081 2.081 0 0 1-.725 1.392c-.418.353-.944.53-1.578.53-.79 0-1.401-.232-1.833-.696-.43-.464-.646-1.13-.646-2 0-.895.215-1.58.646-2.057.438-.477 1.056-.716 1.853-.716.66 0 1.192.183 1.597.549.412.366.64.872.686 1.519h-1.313c-.079-.346-.193-.591-.343-.735-.144-.15-.356-.225-.637-.225-.745 0-1.117.555-1.117 1.665 0 .51.098.902.294 1.177.196.274.47.411.823.411.261 0 .467-.065.617-.196.15-.13.271-.336.363-.617h1.313ZM61.833 24.413l-.01.167h-3.547c.02.49.12.833.303 1.029.183.196.448.294.794.294.588 0 .938-.176 1.049-.53h1.352a2.01 2.01 0 0 1-.882 1.177c-.438.268-.96.401-1.568.401-.758 0-1.352-.231-1.783-.695-.425-.47-.637-1.127-.637-1.97 0-.882.215-1.568.646-2.058.438-.497 1.04-.745 1.804-.745.777 0 1.385.261 1.822.784.438.516.657 1.232.657 2.146Zm-1.43-.744c-.033-.373-.145-.654-.334-.843a.977.977 0 0 0-.735-.294c-.601 0-.947.379-1.039 1.137h2.107ZM67.327 25.295c0 .536-.199.948-.597 1.235-.399.281-.97.421-1.715.421-1.627 0-2.46-.588-2.5-1.764h1.343c.06.268.17.451.334.55.163.09.411.137.744.137.68 0 1.02-.15 1.02-.451 0-.144-.154-.265-.461-.363l-1.637-.51c-.464-.143-.774-.31-.93-.5-.151-.189-.226-.457-.226-.803 0-.542.193-.97.578-1.284.392-.32.924-.48 1.597-.48.713 0 1.271.16 1.676.48.405.314.614.752.627 1.313h-1.323c-.006-.476-.336-.715-.99-.715-.241 0-.434.046-.578.137-.143.085-.215.203-.215.353 0 .111.032.196.098.255.065.052.193.104.382.157l1.735.5c.692.202 1.038.623 1.038 1.264v.068ZM72.87 25.295c0 .536-.198.948-.597 1.235-.398.281-.97.421-1.715.421-1.627 0-2.46-.588-2.499-1.764h1.343c.058.268.17.451.333.55.163.09.412.137.745.137.68 0 1.019-.15 1.019-.451 0-.144-.154-.265-.46-.363l-1.637-.51c-.464-.143-.774-.31-.931-.5-.15-.189-.226-.457-.226-.803 0-.542.193-.97.579-1.284.392-.32.924-.48 1.597-.48.712 0 1.27.16 1.676.48.405.314.614.752.627 1.313H71.4c-.007-.476-.337-.715-.99-.715-.242 0-.434.046-.578.137-.144.085-.216.203-.216.353 0 .111.033.196.098.255.066.052.193.104.382.157l1.735.5c.693.202 1.039.623 1.039 1.264v.068ZM78.895 24.256c0 .843-.236 1.503-.706 1.98-.464.477-1.1.715-1.911.715-.817 0-1.457-.238-1.92-.715-.465-.477-.697-1.15-.697-2.019 0-.862.232-1.532.696-2.009.464-.483 1.101-.725 1.911-.725.837 0 1.483.242 1.94.725.458.477.687 1.16.687 2.049Zm-1.372-.02c0-.515-.115-.917-.343-1.204a1.07 1.07 0 0 0-.902-.441c-.379 0-.683.146-.911.44-.223.288-.334.683-.334 1.186 0 .503.111.902.334 1.196.228.287.532.431.911.431.372 0 .673-.144.902-.431.228-.294.343-.686.343-1.176ZM83.033 22.884a2.773 2.773 0 0 0-.43-.039c-.804 0-1.206.402-1.206 1.206v2.812h-1.372v-5.292h1.372v1.04c.144-.36.346-.638.607-.834a1.405 1.405 0 0 1 1.03-.284v1.392Z"/></svg>
