<svg viewBox="0 0 137 29" fill="#000000" xmlns="http://www.w3.org/2000/svg"><path d="M18.018 9.028H9.011v9.008h9.007V9.028Z"/><path fill-rule="evenodd" clip-rule="evenodd" d="M0 0h27.026v27.026H0V0Zm6.006 9.028h.001v9.009h-.001v3.003h.001v.004H9.01v-.005h12.01V6.025H6.007v3.003Z"/><path d="M36.063 3.752v10.663h2.735V3.752h-2.736Zm0-3.707v2.537h2.735V.045h-2.736ZM43.985 3.751H41.25v10.663h2.735v-5.55c0-1.684.397-3.15 2.2-3.15 1.546 0 1.843 1.208 1.843 2.576v6.124h2.736V7.695c0-2.636-1.13-4.182-3.687-4.182-1.328 0-2.477.555-3.092 1.645V3.751ZM61.618 6.962c-.376-2.457-2.477-3.488-4.697-3.488-2.299 0-4.36 1.268-4.36 3.171 0 1.942 1.328 2.775 3.33 3.19l1.585.338c.931.218 1.744.515 1.744 1.308 0 .773-.733 1.209-1.922 1.209-1.427 0-2.14-.773-2.3-1.804h-2.636c.258 2.438 2.24 3.786 4.856 3.786 2.418 0 4.618-1.308 4.618-3.449 0-2.2-1.803-2.735-3.924-3.21l-1.427-.318c-1.01-.218-1.427-.654-1.427-1.228 0-.654.714-1.031 1.724-1.031 1.269 0 2.062.634 2.28 1.526h2.556ZM68.68 12.57c-1.506 0-2.498-1.287-2.498-3.487 0-2.14.992-3.469 2.498-3.469 1.427 0 2.438 1.407 2.438 3.488 0 2.082-1.011 3.469-2.438 3.469Zm-2.398 5.313v-4.817c.693 1.19 1.942 1.606 3.052 1.606 2.537 0 4.658-2.18 4.658-5.59 0-3.349-2.062-5.569-4.638-5.569-1.348 0-2.498.595-3.072 1.606V3.75h-2.735v14.131h2.735ZM85.804 9.836c.1-3.766-1.942-6.323-5.232-6.323-3.151 0-5.351 2.359-5.351 5.53 0 3.072 2.002 5.629 5.43 5.629 2.914 0 4.46-1.764 5.034-3.35h-2.814c-.555.932-1.387 1.23-2.24 1.23-1.308 0-2.536-.893-2.695-2.716h7.868Zm-5.252-4.32c1.15 0 2.418.633 2.478 2.437h-5.054c.218-1.804 1.545-2.438 2.576-2.438ZM92.514 3.513c-3.19 0-5.35 2.34-5.35 5.59 0 3.23 2.04 5.569 5.231 5.569 2.22 0 4.42-.971 5.055-3.885h-2.617c-.376 1.269-1.347 1.764-2.299 1.764-1.506 0-2.576-1.248-2.576-3.488 0-2.22 1.13-3.429 2.556-3.429 1.05 0 2.002.733 2.22 1.764h2.616c-.376-2.636-2.596-3.885-4.836-3.885ZM99.46 3.751h-1.507v1.883h1.507v5.906c0 2.12.455 2.874 2.913 2.874h2.002v-1.962h-.833c-.971 0-1.347-.218-1.347-1.308v-5.51h2.219V3.75h-2.219V.857H99.46v2.894ZM110.804 5.654c1.506 0 2.577 1.209 2.577 3.448 0 2.24-1.071 3.43-2.577 3.43s-2.576-1.19-2.576-3.43 1.07-3.448 2.576-3.448Zm0 9.018c2.696 0 5.352-1.843 5.352-5.57 0-3.745-2.656-5.589-5.352-5.589-2.695 0-5.351 1.844-5.351 5.59 0 3.726 2.656 5.569 5.351 5.569ZM124 3.81a5.98 5.98 0 0 0-.595-.039c-1.249 0-2.2.516-2.814 1.843V3.751h-2.695v10.663h2.735V8.825c0-2.002.891-2.497 2.239-2.497.396 0 .734 0 1.13.06V3.81ZM38.712 26.077c-.776 0-1.287-.663-1.287-1.797 0-1.102.51-1.786 1.287-1.786.735 0 1.256.724 1.256 1.797 0 1.072-.521 1.786-1.256 1.786Zm-1.236 2.737v-2.481c.358.612 1.001.827 1.573.827 1.307 0 2.4-1.123 2.4-2.88 0-1.725-1.063-2.869-2.39-2.869-.694 0-1.286.307-1.583.827v-.704h-1.409v7.28h1.41ZM45.504 21.564a3.088 3.088 0 0 0-.306-.02c-.644 0-1.134.265-1.45.949v-.96H42.36v5.493h1.41v-2.879c0-1.031.459-1.287 1.153-1.287.204 0 .378 0 .582.031v-1.327ZM48.617 22.514c.776 0 1.327.623 1.327 1.777 0 1.153-.55 1.766-1.327 1.766-.776 0-1.327-.613-1.327-1.766 0-1.154.551-1.777 1.327-1.777Zm0 4.646c1.389 0 2.757-.95 2.757-2.87 0-1.93-1.368-2.879-2.757-2.879-1.388 0-2.757.95-2.757 2.88 0 1.92 1.369 2.869 2.757 2.869ZM54.749 21.411c-1.644 0-2.757 1.205-2.757 2.88 0 1.664 1.052 2.869 2.696 2.869 1.143 0 2.276-.5 2.603-2.002h-1.347c-.194.654-.695.91-1.185.91-.776 0-1.327-.644-1.327-1.798 0-1.143.582-1.766 1.317-1.766a1.17 1.17 0 0 1 1.143.909h1.348c-.194-1.358-1.337-2.002-2.491-2.002ZM63.278 24.668c.05-1.94-1.001-3.257-2.696-3.257-1.623 0-2.757 1.215-2.757 2.849 0 1.582 1.031 2.9 2.798 2.9 1.5 0 2.297-.91 2.593-1.726h-1.45c-.286.48-.714.633-1.154.633-.673 0-1.306-.46-1.388-1.399h4.054Zm-2.706-2.225c.592 0 1.245.326 1.276 1.255h-2.603c.112-.929.796-1.255 1.327-1.255ZM68.646 23.188c-.194-1.266-1.276-1.797-2.42-1.797-1.184 0-2.246.653-2.246 1.634 0 1 .684 1.429 1.715 1.643l.817.174c.48.112.898.265.898.674 0 .398-.377.623-.99.623-.735 0-1.102-.399-1.184-.93h-1.358c.132 1.256 1.154 1.95 2.501 1.95 1.246 0 2.379-.673 2.379-1.776 0-1.133-.93-1.409-2.021-1.654L66 23.566c-.52-.113-.735-.337-.735-.633 0-.337.368-.531.889-.531.653 0 1.061.326 1.174.786h1.317ZM74.05 23.188c-.194-1.266-1.276-1.797-2.42-1.797-1.184 0-2.245.653-2.245 1.634 0 1 .683 1.429 1.715 1.643l.817.174c.48.112.898.265.898.674 0 .398-.378.623-.99.623-.736 0-1.103-.399-1.185-.93h-1.358c.133 1.256 1.154 1.95 2.502 1.95 1.245 0 2.379-.673 2.379-1.776 0-1.133-.93-1.409-2.022-1.654l-.735-.163c-.52-.113-.735-.337-.735-.633 0-.337.367-.531.888-.531.654 0 1.062.326 1.174.786h1.317ZM77.482 22.514c.776 0 1.328.623 1.328 1.777 0 1.153-.552 1.766-1.328 1.766s-1.327-.613-1.327-1.766c0-1.154.551-1.777 1.327-1.777Zm0 4.646c1.389 0 2.757-.95 2.757-2.87 0-1.93-1.368-2.879-2.757-2.879-1.388 0-2.756.95-2.756 2.88 0 1.92 1.368 2.869 2.756 2.869ZM84.28 21.564a3.08 3.08 0 0 0-.306-.02c-.643 0-1.133.265-1.45.949v-.96h-1.388v5.493h1.409v-2.879c0-1.031.46-1.287 1.153-1.287.205 0 .378 0 .582.031v-1.327Z"/></svg>
